<svg width="14" height="15" viewBox="0 0 14 15" fill="none" xmlns="http://www.w3.org/2000/svg">
<path d="M7.24927 12.5C8.28762 12.5 9.30265 12.1921 10.166 11.6152C11.0294 11.0383 11.7023 10.2184 12.0996 9.25909C12.497 8.29978 12.601 7.24418 12.3984 6.22578C12.1958 5.20738 11.6958 4.27192 10.9616 3.53769C10.2274 2.80347 9.29189 2.30345 8.27349 2.10088C7.25509 1.89831 6.19949 2.00227 5.24018 2.39963C4.28087 2.79699 3.46093 3.4699 2.88405 4.33326C2.30717 5.19662 1.99927 6.21165 1.99927 7.25C1.99927 8.118 2.20927 8.93642 2.5826 9.65742L1.99927 12.5L4.84185 11.9167C5.56285 12.29 6.38185 12.5 7.24927 12.5Z" stroke="#5E548E" stroke-width="1.25" stroke-linecap="round" stroke-linejoin="round"/>
</svg>
