<svg width="30" height="30" viewBox="0 0 30 30" fill="none" xmlns="http://www.w3.org/2000/svg">
<path d="M15.0001 2.495C17.4333 2.4918 19.7723 3.43605 21.5213 5.1277C23.2704 6.81934 24.2921 9.12548 24.3701 11.5575L24.3751 11.87V16.9913L26.1001 20.9363C26.2038 21.174 26.2468 21.4338 26.225 21.6922C26.2033 21.9507 26.1175 22.1997 25.9755 22.4167C25.8335 22.6338 25.6397 22.8121 25.4116 22.9355C25.1835 23.0589 24.9282 23.1236 24.6688 23.1238L18.7501 23.1275C18.7513 24.1037 18.3719 25.042 17.6923 25.7429C17.0127 26.4437 16.0866 26.8519 15.1107 26.8808C14.1349 26.9096 13.1863 26.5567 12.4666 25.8972C11.7468 25.2376 11.3126 24.3234 11.2563 23.3488L11.2501 23.1238H5.34381C5.08471 23.1238 4.82968 23.0593 4.60166 22.9363C4.37365 22.8132 4.17981 22.6354 4.03761 22.4188C3.8954 22.2022 3.80929 21.9537 3.78703 21.6955C3.76477 21.4374 3.80705 21.1777 3.91006 20.94L5.62506 16.9925V11.87C5.62506 6.67625 9.81507 2.495 15.0001 2.495ZM16.8751 23.125L13.1251 23.1275C13.125 23.6091 13.3102 24.0723 13.6424 24.4211C13.9746 24.7698 14.4283 24.9773 14.9093 25.0006C15.3904 25.0239 15.862 24.8612 16.2263 24.5462C16.5907 24.2312 16.8198 23.7881 16.8663 23.3088L16.8751 23.125ZM15.0001 4.37C10.8501 4.37 7.50006 7.7125 7.50006 11.87V17.3825L5.82006 21.25H24.1913L22.5001 17.3837V11.8862L22.4963 11.605C22.4307 9.66177 21.6118 7.82024 20.2128 6.46998C18.8138 5.11972 16.9444 4.36662 15.0001 4.37Z" fill="#A78BFA"/>
</svg>
