<svg width="402" height="874" viewBox="0 0 402 874" fill="none" xmlns="http://www.w3.org/2000/svg">
<rect width="402" height="874" fill="#A78BFA"/>
<path d="M114.336 424.812C115.721 424.812 116.875 424.781 117.797 424.719C118.719 424.656 119.648 424.536 120.586 424.359L120.742 425.375C119.763 425.562 118.802 425.69 117.859 425.758C116.917 425.826 115.742 425.859 114.336 425.859H113.273V424.812H114.336ZM119.648 417.734H114.508V425.188H113.273V416.703H119.648V417.734ZM124.102 429.297H122.867V415.375H124.102V429.297ZM123.383 421.453H118.82V420.438H123.383V421.453ZM137.852 429.297H136.617V415.375H137.852V429.297ZM130.461 416.453C131.148 416.453 131.76 416.654 132.297 417.055C132.833 417.456 133.253 418.021 133.555 418.75C133.857 419.479 134.008 420.328 134.008 421.297C134.008 422.266 133.857 423.115 133.555 423.844C133.253 424.573 132.833 425.135 132.297 425.531C131.76 425.927 131.148 426.125 130.461 426.125C129.773 426.125 129.161 425.927 128.625 425.531C128.089 425.135 127.669 424.573 127.367 423.844C127.065 423.115 126.914 422.266 126.914 421.297C126.914 420.328 127.065 419.479 127.367 418.75C127.669 418.021 128.089 417.456 128.625 417.055C129.161 416.654 129.773 416.453 130.461 416.453ZM130.461 417.547C130.003 417.547 129.594 417.703 129.234 418.016C128.875 418.328 128.596 418.766 128.398 419.328C128.201 419.891 128.102 420.547 128.102 421.297C128.102 422.036 128.201 422.69 128.398 423.258C128.596 423.826 128.875 424.263 129.234 424.57C129.594 424.878 130.003 425.031 130.461 425.031C130.919 425.031 131.328 424.878 131.688 424.57C132.047 424.263 132.326 423.826 132.523 423.258C132.721 422.69 132.82 422.036 132.82 421.297C132.82 420.547 132.721 419.891 132.523 419.328C132.326 418.766 132.049 418.328 131.695 418.016C131.341 417.703 130.93 417.547 130.461 417.547ZM144.68 417.531C144.68 418.406 144.518 419.227 144.195 419.992C143.872 420.758 143.424 421.424 142.852 421.992C142.279 422.56 141.607 422.995 140.836 423.297L140.18 422.312C140.867 422.052 141.474 421.682 142 421.203C142.526 420.724 142.935 420.167 143.227 419.531C143.518 418.896 143.664 418.229 143.664 417.531V416.094H144.68V417.531ZM144.867 417.625C144.867 418.24 145.016 418.836 145.312 419.414C145.609 419.992 146.018 420.5 146.539 420.938C147.06 421.375 147.654 421.708 148.32 421.938L147.648 422.906C146.909 422.635 146.253 422.237 145.68 421.711C145.107 421.185 144.661 420.57 144.344 419.867C144.026 419.164 143.867 418.417 143.867 417.625V416.094H144.867V417.625ZM151.086 423.828H149.867V415.375H151.086V423.828ZM153.18 420.031H150.742V419H153.18V420.031ZM146.633 424.188C147.581 424.188 148.398 424.286 149.086 424.484C149.773 424.682 150.299 424.969 150.664 425.344C151.029 425.719 151.211 426.172 151.211 426.703C151.211 427.234 151.029 427.69 150.664 428.07C150.299 428.451 149.776 428.74 149.094 428.938C148.411 429.135 147.591 429.234 146.633 429.234C145.685 429.234 144.865 429.135 144.172 428.938C143.479 428.74 142.948 428.451 142.578 428.07C142.208 427.69 142.023 427.234 142.023 426.703C142.023 426.172 142.208 425.719 142.578 425.344C142.948 424.969 143.479 424.682 144.172 424.484C144.865 424.286 145.685 424.188 146.633 424.188ZM146.633 425.172C145.945 425.172 145.346 425.232 144.836 425.352C144.326 425.471 143.935 425.648 143.664 425.883C143.393 426.117 143.258 426.391 143.258 426.703C143.258 427.026 143.393 427.305 143.664 427.539C143.935 427.773 144.323 427.951 144.828 428.07C145.333 428.19 145.935 428.255 146.633 428.266C147.341 428.255 147.948 428.19 148.453 428.07C148.958 427.951 149.346 427.773 149.617 427.539C149.888 427.305 150.023 427.026 150.023 426.703C150.023 426.38 149.888 426.104 149.617 425.875C149.346 425.646 148.956 425.471 148.445 425.352C147.935 425.232 147.331 425.172 146.633 425.172ZM170.727 424.578H158.07V423.578H170.727V424.578ZM165.008 424.016H163.789V422.094H165.008V424.016ZM169.32 428.969H159.711V427.953H169.32V428.969ZM160.945 428.484H159.711V425.469H160.945V428.484ZM169.992 417.641H158.727V416.672H169.992V417.641ZM164.398 418.25C165.836 418.25 166.945 418.43 167.727 418.789C168.508 419.148 168.898 419.672 168.898 420.359C168.898 420.807 168.721 421.19 168.367 421.508C168.013 421.826 167.5 422.065 166.828 422.227C166.156 422.388 165.346 422.469 164.398 422.469C163.44 422.469 162.625 422.388 161.953 422.227C161.281 422.065 160.768 421.826 160.414 421.508C160.06 421.19 159.883 420.807 159.883 420.359C159.883 419.672 160.273 419.148 161.055 418.789C161.836 418.43 162.951 418.25 164.398 418.25ZM164.398 419.156C163.701 419.156 163.107 419.201 162.617 419.289C162.128 419.378 161.758 419.513 161.508 419.695C161.258 419.878 161.133 420.099 161.133 420.359C161.133 420.62 161.258 420.839 161.508 421.016C161.758 421.193 162.128 421.328 162.617 421.422C163.107 421.516 163.701 421.562 164.398 421.562C165.096 421.562 165.688 421.516 166.172 421.422C166.656 421.328 167.026 421.193 167.281 421.016C167.536 420.839 167.664 420.62 167.664 420.359C167.664 420.099 167.536 419.878 167.281 419.695C167.026 419.513 166.656 419.378 166.172 419.289C165.688 419.201 165.096 419.156 164.398 419.156ZM165.008 417.219H163.789V415.219H165.008V417.219ZM176.367 419.641C176.367 420.578 176.188 421.516 175.828 422.453C175.469 423.391 174.987 424.224 174.383 424.953C173.779 425.682 173.122 426.229 172.414 426.594L171.664 425.625C172.331 425.302 172.948 424.818 173.516 424.172C174.083 423.526 174.539 422.802 174.883 422C175.227 421.198 175.398 420.411 175.398 419.641V417.344H176.367V419.641ZM176.602 419.641C176.602 420.37 176.76 421.109 177.078 421.859C177.396 422.609 177.831 423.289 178.383 423.898C178.935 424.508 179.544 424.969 180.211 425.281L179.508 426.25C178.789 425.896 178.133 425.372 177.539 424.68C176.945 423.987 176.477 423.198 176.133 422.312C175.789 421.427 175.617 420.536 175.617 419.641V417.344H176.602V419.641ZM179.727 417.828H172.164V416.812H179.727V417.828ZM182.648 429.266H181.43V415.375H182.648V429.266ZM184.977 422.047H182.367V421H184.977V422.047ZM200.117 417.797H191.086V416.781H200.117V417.797ZM202.398 427.297H189.742V426.281H202.398V427.297ZM195.914 426.812H194.711V421.312H195.914V426.812ZM200.883 418.172C200.883 418.995 200.872 419.68 200.852 420.227C200.831 420.773 200.784 421.419 200.711 422.164C200.638 422.909 200.523 423.714 200.367 424.578L199.117 424.438C199.284 423.615 199.406 422.839 199.484 422.109C199.562 421.38 199.609 420.732 199.625 420.164C199.641 419.596 199.648 418.932 199.648 418.172V416.781H200.883V418.172ZM210.82 423.031H204.305V416.594H210.82V423.031ZM205.508 422.047H209.617V417.609H205.508V422.047ZM215.039 425.375H213.82V415.391H215.039V425.375ZM215.477 428.797H206.07V427.781H215.477V428.797ZM207.289 428.203H206.07V424.406H207.289V428.203ZM228.148 429.266H226.93V415.375H228.148V429.266ZM230.477 422.125H227.867V421.109H230.477V422.125ZM225.586 418.625H217.32V417.609H225.586V418.625ZM221.523 419.781C222.18 419.781 222.766 419.917 223.281 420.188C223.797 420.458 224.201 420.836 224.492 421.32C224.784 421.805 224.93 422.354 224.93 422.969C224.93 423.583 224.784 424.133 224.492 424.617C224.201 425.102 223.797 425.479 223.281 425.75C222.766 426.021 222.18 426.156 221.523 426.156C220.867 426.156 220.281 426.021 219.766 425.75C219.25 425.479 218.846 425.102 218.555 424.617C218.263 424.133 218.117 423.583 218.117 422.969C218.117 422.354 218.263 421.805 218.555 421.32C218.846 420.836 219.25 420.458 219.766 420.188C220.281 419.917 220.867 419.781 221.523 419.781ZM221.523 420.812C221.096 420.812 220.714 420.904 220.375 421.086C220.036 421.268 219.771 421.523 219.578 421.852C219.385 422.18 219.289 422.552 219.289 422.969C219.289 423.385 219.385 423.755 219.578 424.078C219.771 424.401 220.036 424.654 220.375 424.836C220.714 425.018 221.096 425.109 221.523 425.109C221.951 425.109 222.333 425.018 222.672 424.836C223.01 424.654 223.276 424.401 223.469 424.078C223.661 423.755 223.758 423.385 223.758 422.969C223.758 422.552 223.661 422.18 223.469 421.852C223.276 421.523 223.01 421.268 222.672 421.086C222.333 420.904 221.951 420.812 221.523 420.812ZM222.117 418.078H220.898V415.547H222.117V418.078ZM235.977 419.641C235.977 420.589 235.794 421.529 235.43 422.461C235.065 423.393 234.578 424.224 233.969 424.953C233.359 425.682 232.69 426.229 231.961 426.594L231.227 425.625C231.883 425.302 232.497 424.82 233.07 424.18C233.643 423.539 234.102 422.818 234.445 422.016C234.789 421.214 234.961 420.422 234.961 419.641V417.344H235.977V419.641ZM236.195 419.641C236.195 420.401 236.365 421.161 236.703 421.922C237.042 422.682 237.5 423.357 238.078 423.945C238.656 424.534 239.284 424.979 239.961 425.281L239.273 426.25C238.523 425.906 237.839 425.396 237.219 424.719C236.599 424.042 236.109 423.26 235.75 422.375C235.391 421.49 235.211 420.578 235.211 419.641V417.344H236.195V419.641ZM239.508 417.828H231.68V416.812H239.508V417.828ZM242.68 429.266H241.445V415.375H242.68V429.266ZM256.055 425.734H249.648V416.781H256.055V425.734ZM250.836 424.734H254.836V417.766H250.836V424.734ZM259.82 429.266H258.602V415.375H259.82V429.266ZM262.148 421.984H259.539V420.922H262.148V421.984ZM271.148 421.406H268.414V420.359H271.148V421.406ZM266.805 419.375C266.805 420.323 266.672 421.25 266.406 422.156C266.141 423.062 265.76 423.872 265.266 424.586C264.771 425.299 264.19 425.859 263.523 426.266L262.742 425.344C263.367 424.979 263.914 424.479 264.383 423.844C264.852 423.208 265.211 422.503 265.461 421.727C265.711 420.951 265.836 420.167 265.836 419.375V416.688H266.805V419.375ZM267.023 419.328C267.023 420.068 267.141 420.807 267.375 421.547C267.609 422.286 267.948 422.961 268.391 423.57C268.833 424.18 269.352 424.661 269.945 425.016L269.242 425.969C268.586 425.573 268.021 425.023 267.547 424.32C267.073 423.617 266.711 422.833 266.461 421.969C266.211 421.104 266.086 420.224 266.086 419.328V416.688H267.023V419.328ZM274.805 429.266H273.617V415.375H274.805V429.266ZM271.93 428.562H270.773V415.672H271.93V428.562ZM281.086 426.703H279.883V422.547H281.086V426.703ZM286.289 426.703H285.055V422.547H286.289V426.703ZM289.445 427.484H276.727V426.453H289.445V427.484ZM283.055 416.25C284.044 416.25 284.922 416.398 285.688 416.695C286.453 416.992 287.052 417.411 287.484 417.953C287.917 418.495 288.133 419.12 288.133 419.828C288.133 420.536 287.917 421.159 287.484 421.695C287.052 422.232 286.453 422.648 285.688 422.945C284.922 423.242 284.044 423.391 283.055 423.391C282.076 423.391 281.201 423.242 280.43 422.945C279.659 422.648 279.057 422.232 278.625 421.695C278.193 421.159 277.977 420.536 277.977 419.828C277.977 419.12 278.193 418.495 278.625 417.953C279.057 417.411 279.659 416.992 280.43 416.695C281.201 416.398 282.076 416.25 283.055 416.25ZM283.055 417.266C282.305 417.255 281.635 417.357 281.047 417.57C280.458 417.784 279.997 418.086 279.664 418.477C279.331 418.867 279.164 419.318 279.164 419.828C279.164 420.339 279.331 420.789 279.664 421.18C279.997 421.57 280.458 421.875 281.047 422.094C281.635 422.312 282.305 422.422 283.055 422.422C283.805 422.422 284.474 422.312 285.062 422.094C285.651 421.875 286.112 421.57 286.445 421.18C286.779 420.789 286.945 420.339 286.945 419.828C286.945 419.318 286.779 418.867 286.445 418.477C286.112 418.086 285.651 417.784 285.062 417.57C284.474 417.357 283.805 417.255 283.055 417.266ZM162.586 450.812H152.617V449.297H162.586V450.812ZM162.477 446.164H154.633V450.039H152.617V444.633H162.477V446.164ZM162.133 448.453H154.039V446.977H162.133V448.453ZM163.992 453.219H151.023V451.625H163.992V453.219ZM158.492 454.898H156.492V452.688H158.492V454.898ZM162.445 458.438H160.484V455.805H152.453V454.234H162.445V458.438ZM176.438 458.297H175.203V444.375H176.438V458.297ZM169.047 445.453C169.734 445.453 170.346 445.654 170.883 446.055C171.419 446.456 171.839 447.021 172.141 447.75C172.443 448.479 172.594 449.328 172.594 450.297C172.594 451.266 172.443 452.115 172.141 452.844C171.839 453.573 171.419 454.135 170.883 454.531C170.346 454.927 169.734 455.125 169.047 455.125C168.359 455.125 167.747 454.927 167.211 454.531C166.674 454.135 166.255 453.573 165.953 452.844C165.651 452.115 165.5 451.266 165.5 450.297C165.5 449.328 165.651 448.479 165.953 447.75C166.255 447.021 166.674 446.456 167.211 446.055C167.747 445.654 168.359 445.453 169.047 445.453ZM169.047 446.547C168.589 446.547 168.18 446.703 167.82 447.016C167.461 447.328 167.182 447.766 166.984 448.328C166.786 448.891 166.688 449.547 166.688 450.297C166.688 451.036 166.786 451.69 166.984 452.258C167.182 452.826 167.461 453.263 167.82 453.57C168.18 453.878 168.589 454.031 169.047 454.031C169.505 454.031 169.914 453.878 170.273 453.57C170.633 453.263 170.911 452.826 171.109 452.258C171.307 451.69 171.406 451.036 171.406 450.297C171.406 449.547 171.307 448.891 171.109 448.328C170.911 447.766 170.635 447.328 170.281 447.016C169.927 446.703 169.516 446.547 169.047 446.547ZM193.688 452.75H192.469V444.375H193.688V452.75ZM195.781 449.125H193.344V448.078H195.781V449.125ZM193.688 458.078H184.922V453.547H193.688V458.078ZM186.125 457.078H192.469V454.531H186.125V457.078ZM191.141 446.875H182.859V445.859H191.141V446.875ZM187 447.562C187.667 447.562 188.25 447.664 188.75 447.867C189.25 448.07 189.641 448.359 189.922 448.734C190.203 449.109 190.344 449.542 190.344 450.031C190.344 450.531 190.203 450.969 189.922 451.344C189.641 451.719 189.25 452.008 188.75 452.211C188.25 452.414 187.667 452.516 187 452.516C186.333 452.516 185.747 452.414 185.242 452.211C184.737 452.008 184.346 451.719 184.07 451.344C183.794 450.969 183.656 450.531 183.656 450.031C183.656 449.542 183.794 449.109 184.07 448.734C184.346 448.359 184.737 448.07 185.242 447.867C185.747 447.664 186.333 447.562 187 447.562ZM187 448.516C186.573 448.516 186.193 448.578 185.859 448.703C185.526 448.828 185.271 449.005 185.094 449.234C184.917 449.464 184.828 449.729 184.828 450.031C184.828 450.344 184.917 450.615 185.094 450.844C185.271 451.073 185.523 451.25 185.852 451.375C186.18 451.5 186.562 451.568 187 451.578C187.438 451.568 187.82 451.5 188.148 451.375C188.477 451.25 188.732 451.073 188.914 450.844C189.096 450.615 189.188 450.344 189.188 450.031C189.188 449.729 189.094 449.464 188.906 449.234C188.719 449.005 188.461 448.828 188.133 448.703C187.805 448.578 187.427 448.516 187 448.516ZM187.609 446.375H186.391V444.266H187.609V446.375ZM200.109 446.062C200.109 447.167 200.042 448.219 199.906 449.219C199.771 450.219 199.523 451.214 199.164 452.203C198.805 453.193 198.302 454.109 197.656 454.953L196.688 454.391C197.312 453.62 197.797 452.786 198.141 451.891C198.484 450.995 198.724 450.081 198.859 449.148C198.995 448.216 199.062 447.219 199.062 446.156V446.062H200.109ZM199.656 447.078H196.969V446.062H199.656V447.078ZM203.188 446.062C203.188 447.302 203.135 448.451 203.031 449.508C202.927 450.565 202.698 451.656 202.344 452.781C201.99 453.906 201.464 454.938 200.766 455.875L199.812 455.297C200.479 454.443 200.982 453.497 201.32 452.461C201.659 451.424 201.878 450.411 201.977 449.422C202.076 448.432 202.125 447.344 202.125 446.156V446.062H203.188ZM202.766 447.078H200.547V446.062H202.766V447.078ZM208.609 458.266H207.422V444.375H208.609V458.266ZM205.094 450.859H202.531V449.844H205.094V450.859ZM206 457.562H204.828V444.75H206V457.562ZM221.344 452.016H220.125V444.328H221.344V452.016ZM223.453 448.719H220.812V447.703H223.453V448.719ZM221.344 455.812H213.719V457.516H212.516V454.906H220.125V453.656H212.484V452.734H221.344V455.812ZM221.859 458.109H212.516V457.172H221.859V458.109ZM218.797 446.625H210.516V445.641H218.797V446.625ZM214.656 447.25C215.323 447.25 215.909 447.341 216.414 447.523C216.919 447.706 217.31 447.969 217.586 448.312C217.862 448.656 218 449.062 218 449.531C218 449.99 217.862 450.391 217.586 450.734C217.31 451.078 216.919 451.344 216.414 451.531C215.909 451.719 215.323 451.812 214.656 451.812C213.99 451.812 213.401 451.719 212.891 451.531C212.38 451.344 211.99 451.078 211.719 450.734C211.448 450.391 211.312 449.99 211.312 449.531C211.312 449.062 211.448 448.656 211.719 448.312C211.99 447.969 212.38 447.706 212.891 447.523C213.401 447.341 213.99 447.25 214.656 447.25ZM214.656 448.156C214.229 448.156 213.849 448.214 213.516 448.328C213.182 448.443 212.927 448.604 212.75 448.812C212.573 449.021 212.484 449.26 212.484 449.531C212.484 449.802 212.573 450.042 212.75 450.25C212.927 450.458 213.18 450.617 213.508 450.727C213.836 450.836 214.219 450.891 214.656 450.891C215.094 450.891 215.477 450.836 215.805 450.727C216.133 450.617 216.388 450.458 216.57 450.25C216.753 450.042 216.844 449.802 216.844 449.531C216.844 449.25 216.753 449.008 216.57 448.805C216.388 448.602 216.133 448.443 215.805 448.328C215.477 448.214 215.094 448.156 214.656 448.156ZM215.266 446.328H214.047V444.234H215.266V446.328ZM236.203 458.266H235.031V444.375H236.203V458.266ZM232.469 451.078H228.906V450.078H232.469V451.078ZM233.281 457.562H232.109V444.75H233.281V457.562ZM230.312 446.156C230.312 447.396 230.13 448.57 229.766 449.68C229.401 450.789 228.828 451.818 228.047 452.766C227.266 453.714 226.266 454.547 225.047 455.266L224.328 454.375C225.411 453.729 226.31 452.995 227.023 452.172C227.737 451.349 228.266 450.451 228.609 449.477C228.953 448.503 229.125 447.469 229.125 446.375V446.156H230.312ZM229.594 447.172H224.922V446.156H229.594V447.172ZM242.5 455.703H241.297V451.547H242.5V455.703ZM247.703 455.703H246.469V451.547H247.703V455.703ZM250.859 456.484H238.141V455.453H250.859V456.484ZM244.469 445.25C245.458 445.25 246.336 445.398 247.102 445.695C247.867 445.992 248.466 446.411 248.898 446.953C249.331 447.495 249.547 448.12 249.547 448.828C249.547 449.536 249.331 450.159 248.898 450.695C248.466 451.232 247.867 451.648 247.102 451.945C246.336 452.242 245.458 452.391 244.469 452.391C243.49 452.391 242.615 452.242 241.844 451.945C241.073 451.648 240.471 451.232 240.039 450.695C239.607 450.159 239.391 449.536 239.391 448.828C239.391 448.12 239.607 447.495 240.039 446.953C240.471 446.411 241.073 445.992 241.844 445.695C242.615 445.398 243.49 445.25 244.469 445.25ZM244.469 446.266C243.719 446.255 243.049 446.357 242.461 446.57C241.872 446.784 241.411 447.086 241.078 447.477C240.745 447.867 240.578 448.318 240.578 448.828C240.578 449.339 240.745 449.789 241.078 450.18C241.411 450.57 241.872 450.875 242.461 451.094C243.049 451.312 243.719 451.422 244.469 451.422C245.219 451.422 245.888 451.312 246.477 451.094C247.065 450.875 247.526 450.57 247.859 450.18C248.193 449.789 248.359 449.339 248.359 448.828C248.359 448.318 248.193 447.867 247.859 447.477C247.526 447.086 247.065 446.784 246.477 446.57C245.888 446.357 245.219 446.255 244.469 446.266Z" fill="white"/>
</svg>
