<svg width="44" height="40" viewBox="0 0 44 40" fill="none" xmlns="http://www.w3.org/2000/svg">
<path d="M16.9255 8.57129C16.6288 8.57136 16.3354 8.62572 16.0632 8.72949C15.7913 8.83326 15.5466 8.98403 15.3425 9.17188C15.1384 9.35977 14.9788 9.58049 14.8708 9.82031C14.763 10.06 14.7087 10.3157 14.7087 10.5723C14.7088 10.8287 14.7639 11.0837 14.8718 11.3232C14.9529 11.5032 15.0627 11.6726 15.199 11.8252L15.3435 11.9717L23.6677 19.6318L24.0681 20L23.6677 20.3682L15.3416 28.0273V28.0283L15.3347 28.0342C15.1246 28.2208 14.9592 28.4415 14.8464 28.6826C14.7337 28.9237 14.6752 29.182 14.6726 29.4414C14.6701 29.7006 14.7241 29.9586 14.8318 30.2012C14.9397 30.4441 15.1 30.6684 15.3064 30.8584C15.5127 31.0484 15.7604 31.2008 16.0359 31.3047C16.3116 31.4086 16.6089 31.4613 16.9089 31.459C17.2088 31.4567 17.5046 31.399 17.7781 31.291C18.0515 31.183 18.296 31.0269 18.4988 30.834L18.5056 30.8281L27.8142 22.2666H27.8132L28.7546 21.3984C29.1658 21.0197 29.3884 20.5159 29.3884 20C29.3884 19.4841 29.1659 18.9794 28.7546 18.6006L18.5085 9.1709C18.0952 8.79094 17.5263 8.57116 16.9255 8.57129Z" fill="black" stroke="#F6F4FB"/>
</svg>
