<svg width="20" height="20" viewBox="0 0 20 20" fill="none" xmlns="http://www.w3.org/2000/svg">
<path d="M9.20609 2.87256C8.88109 2.22298 8.20192 1.69756 7.36775 1.79048C6.6215 1.87339 5.51359 2.15089 4.75817 3.06089C3.98275 3.99548 3.69359 5.45298 4.289 7.63673C4.92484 9.96631 5.869 12.263 7.04275 14.1159C8.20775 15.9555 9.64275 17.428 11.289 17.9926C12.7448 18.4917 13.8582 18.2834 14.6703 17.7351C15.4536 17.2063 15.8836 16.4109 16.1061 15.8601C16.3553 15.2434 16.1911 14.6013 15.8661 14.128L14.6673 12.3846C14.4025 11.9994 14.0213 11.7092 13.5795 11.5564C13.1376 11.4037 12.6585 11.3965 12.2123 11.5359L10.5557 12.0538C10.5033 12.0716 10.4469 12.0738 10.3934 12.0599C10.3399 12.0461 10.2916 12.0169 10.2544 11.9759C9.51692 11.1121 8.69067 9.90756 8.46609 8.68839C8.4589 8.65584 8.46379 8.62178 8.47984 8.59256C8.72359 8.18298 9.14317 7.71881 9.56025 7.31256C10.2673 6.62423 10.5353 5.53006 10.0686 4.59756L9.20609 2.87256Z" fill="#5E548E"/>
</svg>
