<svg width="37" height="37" viewBox="0 0 37 37" fill="none" xmlns="http://www.w3.org/2000/svg">
<path d="M6.1665 29.2916V15.4166C6.1665 14.9284 6.27596 14.4659 6.49488 14.0291C6.7138 13.5923 7.01545 13.2326 7.39984 12.9499L16.6498 6.01242C17.1894 5.60131 17.8061 5.39575 18.4998 5.39575C19.1936 5.39575 19.8103 5.60131 20.3498 6.01242L29.5998 12.9499C29.9853 13.2326 30.2874 13.5923 30.5063 14.0291C30.7253 14.4659 30.8342 14.9284 30.8332 15.4166V29.2916C30.8332 30.1395 30.531 30.8656 29.9267 31.47C29.3223 32.0743 28.5967 32.3759 27.7498 32.3749H23.1248C22.688 32.3749 22.3221 32.2269 22.0272 31.9309C21.7322 31.6349 21.5842 31.269 21.5832 30.8333V23.1249C21.5832 22.6881 21.4352 22.3222 21.1392 22.0273C20.8432 21.7323 20.4773 21.5843 20.0415 21.5833H16.9582C16.5214 21.5833 16.1555 21.7313 15.8605 22.0273C15.5655 22.3233 15.4175 22.6891 15.4165 23.1249V30.8333C15.4165 31.2701 15.2685 31.6365 14.9725 31.9325C14.6765 32.2285 14.3106 32.3759 13.8748 32.3749H9.24984C8.40192 32.3749 7.67631 32.0733 7.073 31.47C6.4697 30.8667 6.16753 30.1405 6.1665 29.2916Z" fill="#DDD6F3"/>
</svg>
