<svg width="35" height="35" viewBox="0 0 35 35" fill="none" xmlns="http://www.w3.org/2000/svg">
<path d="M30.5447 7.39236C30.0643 6.71762 29.3867 6.20818 28.6051 5.93403L21.4301 3.54236C18.8959 2.71081 16.1622 2.71081 13.628 3.54236L6.46759 5.93403C5.68946 6.19193 5.01257 6.68883 4.53337 7.35394C4.05418 8.01906 3.79712 8.81844 3.79884 9.6382V17.3382C3.80324 19.431 4.34121 21.4882 5.36191 23.3152C6.38261 25.1423 7.85233 26.6789 9.63217 27.7799L15.4655 31.4986C16.0889 31.8802 16.8055 32.0821 17.5363 32.0821C18.2672 32.0821 18.9838 31.8802 19.6072 31.4986L25.4405 27.7799C27.2028 26.6651 28.657 25.1257 29.6697 23.3028C30.6772 21.4764 31.2041 19.424 31.2009 17.3382V9.6382C31.2185 8.83988 30.9894 8.05559 30.5447 7.39236ZM24.5218 17.8924C24.5218 18.3565 24.3374 18.8016 24.0092 19.1298C23.681 19.458 23.2359 19.6424 22.7718 19.6424H20.5988V21.8299C20.5988 22.294 20.4145 22.7391 20.0863 23.0673C19.7581 23.3955 19.313 23.5799 18.8488 23.5799H16.2238C15.9935 23.5818 15.765 23.5379 15.5518 23.4506C15.3387 23.3634 15.145 23.2345 14.9821 23.0716C14.8192 22.9087 14.6903 22.715 14.6031 22.5019C14.5158 22.2887 14.4719 22.0602 14.4738 21.8299V19.5986H12.2863C11.8233 19.5921 11.3801 19.4096 11.0468 19.0882C10.8844 18.9253 10.7557 18.7319 10.6681 18.5192C10.5806 18.3065 10.5358 18.0786 10.5363 17.8486V15.2236C10.5363 14.7628 10.7201 14.3224 11.0468 13.9986C11.2085 13.8336 11.4013 13.7023 11.614 13.6122C11.8268 13.522 12.0553 13.475 12.2863 13.4736H14.4738V11.3007C14.4738 10.8366 14.6582 10.3914 14.9864 10.0633C15.3146 9.73507 15.7597 9.55069 16.2238 9.55069H18.8488C19.077 9.54796 19.3033 9.59182 19.514 9.67958C19.7246 9.76734 19.9151 9.89717 20.0738 10.0611C20.2388 10.2228 20.3702 10.4156 20.4603 10.6284C20.5504 10.8412 20.5975 11.0696 20.5988 11.3007V13.4736H22.7718C23.003 13.4733 23.232 13.5197 23.445 13.6099C23.658 13.7001 23.8506 13.8323 24.0113 13.9986C24.1753 14.1573 24.3051 14.3478 24.3929 14.5585C24.4806 14.7691 24.5245 14.9954 24.5218 15.2236V17.8924Z" fill="#DDD6F3"/>
<path d="M22.3345 15.7049V17.4549H19.5054C19.2153 17.4549 18.9371 17.5701 18.732 17.7753C18.5269 17.9804 18.4116 18.2586 18.4116 18.5486V21.3924H16.6616V18.5486C16.6578 18.2597 16.5414 17.9837 16.3371 17.7794C16.1328 17.5751 15.8568 17.4587 15.5679 17.4549H12.7241V15.7049H15.5679C15.858 15.7049 16.1362 15.5897 16.3413 15.3845C16.5464 15.1794 16.6616 14.9012 16.6616 14.6111V11.782H18.4116V14.6111C18.4097 14.7553 18.4366 14.8984 18.4909 15.032C18.5452 15.1656 18.6256 15.287 18.7276 15.3889C18.8296 15.4909 18.9509 15.5714 19.0845 15.6256C19.2181 15.6799 19.3612 15.7069 19.5054 15.7049H22.3345Z" fill="#DDD6F3"/>
</svg>
