<svg width="20" height="21" viewBox="0 0 20 21" fill="none" xmlns="http://www.w3.org/2000/svg">
<path d="M5.87557 16.28H4.99986V8.10431L9.31415 1.96574C9.55449 1.62431 9.90265 1.37359 10.3027 1.2539C10.7027 1.13421 11.1313 1.15248 11.5197 1.30579C11.9081 1.4591 12.2337 1.73854 12.4441 2.09919C12.6545 2.45985 12.7375 2.88077 12.6799 3.29431L12.357 5.62003H15.1999C16.4427 5.62003 18.9299 6.86288 18.9299 9.3486C18.9299 11.8343 16.4299 17.5229 13.7856 17.5229C10.3041 17.5229 7.32557 16.6943 5.87557 16.28ZM1.07129 7.78288C1.07129 6.69717 1.95129 5.8186 3.03557 5.8186C4.12129 5.8186 4.99986 6.6986 4.99986 7.78288V15.9972C4.99986 17.0829 4.11986 17.9615 3.03557 17.9615C1.94986 17.9615 1.07129 17.0815 1.07129 15.9972V7.78288Z" stroke="#5E548E" stroke-width="1.42857" stroke-linecap="round" stroke-linejoin="round"/>
</svg>
