<svg width="20" height="20" viewBox="0 0 20 20" fill="none" xmlns="http://www.w3.org/2000/svg">
<path fill-rule="evenodd" clip-rule="evenodd" d="M10.9714 1.11133C12.2757 1.11133 13.28 2.26561 13.1 3.55704L12.8186 5.55704H15.5543C16.3643 5.55704 17.45 5.9399 18.3314 6.64561C19.2371 7.36847 20 8.49133 20 9.9999C20 11.4085 19.3186 13.5728 18.33 15.3642C17.83 16.2685 17.23 17.1256 16.5514 17.7642C15.8814 18.397 15.0614 18.887 14.1414 18.887C10.67 18.887 7.69286 18.087 6.18 17.6585C6.14735 17.6498 6.11378 17.645 6.08 17.6442C5.98288 17.6438 5.88986 17.605 5.82131 17.5361C5.75277 17.4673 5.71428 17.3742 5.71429 17.277V7.45704C5.71435 7.163 5.80515 6.87614 5.97429 6.63561L9.21286 2.02561C9.61571 1.45276 10.2729 1.11133 10.9714 1.11133ZM1.96286 6.46847C0.878571 6.46847 0 7.34847 0 8.43276V16.647C0 17.168 0.206951 17.6676 0.575326 18.036C0.943701 18.4044 1.44332 18.6113 1.96429 18.6113C2.48525 18.6113 2.98487 18.4044 3.35325 18.036C3.72162 17.6676 3.92857 17.168 3.92857 16.647V8.43276C3.92857 7.34704 3.04857 6.46847 1.96429 6.46847" fill="#5E548E"/>
</svg>
