<svg width="18" height="18" viewBox="0 0 18 18" fill="none" xmlns="http://www.w3.org/2000/svg">
<path d="M14.6306 10.8675C15.1214 9.9465 15.3771 8.91857 15.375 7.875C15.375 4.35413 12.5209 1.5 9.00001 1.5C5.47914 1.5 2.62501 4.35413 2.62501 7.875C2.62236 9.37887 3.15396 10.8348 4.12501 11.9831L4.13251 11.9925L4.13926 12H4.12501L7.90801 16.0162C8.04825 16.1651 8.21744 16.2837 8.4052 16.3648C8.59296 16.4459 8.79531 16.4877 8.99982 16.4877C9.20434 16.4877 9.40669 16.4459 9.59445 16.3648C9.7822 16.2837 9.9514 16.1651 10.0916 16.0162L13.875 12H13.8608L13.8668 11.9929L13.8675 11.9921C13.8945 11.9599 13.9214 11.9274 13.9481 11.8946C14.2083 11.575 14.4369 11.2313 14.6306 10.8675ZM9.00188 10.3121C8.40515 10.3121 7.83285 10.0751 7.41089 9.65312C6.98894 9.23116 6.75188 8.65886 6.75188 8.06213C6.75188 7.46539 6.98894 6.89309 7.41089 6.47113C7.83285 6.04918 8.40515 5.81212 9.00188 5.81212C9.59862 5.81212 10.1709 6.04918 10.5929 6.47113C11.0148 6.89309 11.2519 7.46539 11.2519 8.06213C11.2519 8.65886 11.0148 9.23116 10.5929 9.65312C10.1709 10.0751 9.59862 10.3121 9.00188 10.3121Z" fill="#5E548E"/>
</svg>
