<svg width="189" height="18" viewBox="0 0 189 18" fill="none" xmlns="http://www.w3.org/2000/svg">
<path d="M14.6306 10.8675C15.1214 9.9465 15.3771 8.91857 15.375 7.875C15.375 4.35413 12.5209 1.5 9.00001 1.5C5.47914 1.5 2.62501 4.35413 2.62501 7.875C2.62236 9.37887 3.15396 10.8348 4.12501 11.9831L4.13251 11.9925L4.13926 12H4.12501L7.90801 16.0162C8.04825 16.1651 8.21744 16.2837 8.4052 16.3648C8.59296 16.4459 8.79531 16.4877 8.99982 16.4877C9.20434 16.4877 9.40669 16.4459 9.59445 16.3648C9.7822 16.2837 9.9514 16.1651 10.0916 16.0162L13.875 12H13.8608L13.8668 11.9929L13.8675 11.9921C13.8945 11.9599 13.9214 11.9274 13.9481 11.8946C14.2083 11.575 14.4369 11.2313 14.6306 10.8675ZM9.00188 10.3121C8.40515 10.3121 7.83285 10.0751 7.41089 9.65312C6.98894 9.23116 6.75188 8.65886 6.75188 8.06213C6.75188 7.46539 6.98894 6.89309 7.41089 6.47113C7.83285 6.04918 8.40515 5.81212 9.00188 5.81212C9.59862 5.81212 10.1709 6.04918 10.5929 6.47113C11.0148 6.89309 11.2519 7.46539 11.2519 8.06213C11.2519 8.65886 11.0148 9.23116 10.5929 9.65312C10.1709 10.0751 9.59862 10.3121 9.00188 10.3121Z" fill="#5E548E"/>
<path d="M42.7812 7.84375H39.8516V7.09375H42.7812V7.84375ZM38.0938 6.33203C38.0938 7.08203 37.9668 7.81836 37.7129 8.54102C37.459 9.26367 37.1113 9.9043 36.6699 10.4629C36.2285 11.0215 35.7344 11.4492 35.1875 11.7461L34.5898 11.0078C35.0977 10.7578 35.5605 10.3867 35.9785 9.89453C36.3965 9.40234 36.7266 8.8418 36.9688 8.21289C37.2109 7.58398 37.332 6.95703 37.332 6.33203V4.43359H38.0938V6.33203ZM38.2695 6.33203C38.2695 6.94922 38.3906 7.55859 38.6328 8.16016C38.875 8.76172 39.2031 9.29492 39.6172 9.75977C40.0312 10.2246 40.4883 10.5742 40.9883 10.8086L40.4375 11.5586C39.8828 11.2695 39.3848 10.8574 38.9434 10.3223C38.502 9.78711 38.1543 9.17188 37.9004 8.47656C37.6465 7.78125 37.5195 7.06641 37.5195 6.33203V4.43359H38.2695V6.33203ZM43.2383 13.9727H42.3242V3.53125H43.2383V13.9727ZM50.1641 10.0352H49.25V8.42969H50.1641V10.0352ZM49.7188 3.66016C50.4922 3.66016 51.1543 3.73047 51.7051 3.87109C52.2559 4.01172 52.6758 4.2168 52.9648 4.48633C53.2539 4.75586 53.3984 5.08203 53.3984 5.46484C53.3984 5.84766 53.2539 6.17383 52.9648 6.44336C52.6758 6.71289 52.2559 6.91797 51.7051 7.05859C51.1543 7.19922 50.4922 7.27344 49.7188 7.28125C48.9453 7.27344 48.2832 7.19922 47.7324 7.05859C47.1816 6.91797 46.7598 6.71289 46.4668 6.44336C46.1738 6.17383 46.0273 5.84766 46.0273 5.46484C46.0273 5.08203 46.1738 4.75586 46.4668 4.48633C46.7598 4.2168 47.1816 4.01172 47.7324 3.87109C48.2832 3.73047 48.9453 3.66016 49.7188 3.66016ZM49.7188 4.36328C49.1406 4.36328 48.6484 4.4082 48.2422 4.49805C47.8359 4.58789 47.5254 4.71289 47.3105 4.87305C47.0957 5.0332 46.9883 5.23047 46.9883 5.46484C46.9883 5.69922 47.0938 5.89844 47.3047 6.0625C47.5156 6.22656 47.8262 6.35156 48.2363 6.4375C48.6465 6.52344 49.1406 6.57031 49.7188 6.57812C50.2969 6.57031 50.791 6.52344 51.2012 6.4375C51.6113 6.35156 51.9238 6.22656 52.1387 6.0625C52.3535 5.89844 52.4609 5.69922 52.4609 5.46484C52.4609 5.23047 52.3535 5.0332 52.1387 4.87305C51.9238 4.71289 51.6113 4.58789 51.2012 4.49805C50.791 4.4082 50.2969 4.36328 49.7188 4.36328ZM54.4648 8.71094H44.9727V7.97266H54.4648V8.71094ZM53.2461 12.0273H47.0586V13.293H46.1445V11.3477H52.3438V10.3984H46.1211V9.69531H53.2461V12.0273ZM53.5625 13.832H46.1445V13.1055H53.5625V13.832ZM64.8359 9.78906H55.332V9.05078H64.8359V9.78906ZM63.6055 13.9492H62.668V11.5469H56.3984V10.8086H63.6055V13.9492ZM63.7109 8.04297H56.5977V7.32812H63.7109V8.04297ZM63.6523 4.55078H57.5234V7.66797H56.5977V3.8125H63.6523V4.55078ZM63.3711 6.26172H57.2422V5.54688H63.3711V6.26172ZM73.6719 5.74609H70.6719V5.03125H73.6719V5.74609ZM73.6719 7.64453H70.6719V6.91797H73.6719V7.64453ZM74.3398 8.98047H73.4258V3.53125H74.3398V8.98047ZM74.3398 11.9336H68.5273V13.5742H67.6133V11.2305H73.4258V10.2227H67.5898V9.48438H74.3398V11.9336ZM74.7383 13.8086H67.6133V13.0703H74.7383V13.8086ZM67.1562 5.52344H70.0625V4.02344H70.9648V8.55859H66.2422V4.02344H67.1562V5.52344ZM70.0625 7.80859V6.25H67.1562V7.80859H70.0625ZM79.6367 6.33203C79.6367 7.10547 79.5039 7.85742 79.2383 8.58789C78.9727 9.31836 78.6113 9.96094 78.1543 10.5156C77.6973 11.0703 77.1836 11.4922 76.6133 11.7812L76.0273 11.0078C76.543 10.7656 77.0176 10.4023 77.4512 9.91797C77.8848 9.43359 78.2305 8.875 78.4883 8.24219C78.7461 7.60938 78.875 6.97266 78.875 6.33203V4.43359H79.6367V6.33203ZM79.7891 6.33203C79.7891 6.94922 79.916 7.56055 80.1699 8.16602C80.4238 8.77148 80.7676 9.31055 81.2012 9.7832C81.6348 10.2559 82.1055 10.6094 82.6133 10.8438L82.0508 11.5703C81.4961 11.2969 80.9863 10.8926 80.5215 10.3574C80.0566 9.82227 79.6895 9.20312 79.4199 8.5C79.1504 7.79688 79.0156 7.07422 79.0156 6.33203V4.43359H79.7891V6.33203ZM84.6758 13.9727H83.75V3.53125H84.6758V13.9727ZM97.6484 7.84375H94.7188V7.09375H97.6484V7.84375ZM92.9609 6.33203C92.9609 7.08203 92.834 7.81836 92.5801 8.54102C92.3262 9.26367 91.9785 9.9043 91.5371 10.4629C91.0957 11.0215 90.6016 11.4492 90.0547 11.7461L89.457 11.0078C89.9648 10.7578 90.4277 10.3867 90.8457 9.89453C91.2637 9.40234 91.5938 8.8418 91.8359 8.21289C92.0781 7.58398 92.1992 6.95703 92.1992 6.33203V4.43359H92.9609V6.33203ZM93.1367 6.33203C93.1367 6.94922 93.2578 7.55859 93.5 8.16016C93.7422 8.76172 94.0703 9.29492 94.4844 9.75977C94.8984 10.2246 95.3555 10.5742 95.8555 10.8086L95.3047 11.5586C94.75 11.2695 94.252 10.8574 93.8105 10.3223C93.3691 9.78711 93.0215 9.17188 92.7676 8.47656C92.5137 7.78125 92.3867 7.06641 92.3867 6.33203V4.43359H93.1367V6.33203ZM98.1055 13.9727H97.1914V3.53125H98.1055V13.9727ZM108.746 13.9492H107.867V3.53125H108.746V13.9492ZM108.102 8.48828H106.062V7.72656H108.102V8.48828ZM106.332 13.4102H105.488V3.76562H106.332V13.4102ZM100.895 10.5859C101.746 10.5859 102.453 10.5664 103.016 10.5273C103.578 10.4883 104.148 10.4102 104.727 10.293L104.809 11.0664C104.215 11.1836 103.631 11.2637 103.057 11.3066C102.482 11.3496 101.762 11.3711 100.895 11.3711H100.227V10.5859H100.895ZM104.129 5.57031H101.141V10.9492H100.227V4.80859H104.129V5.57031ZM119.738 9.625H110.199V8.86328H119.738V9.625ZM115.496 11.7578H114.582V9.33203H115.496V11.7578ZM118.496 7.66797H111.441V4.04688H118.496V7.66797ZM112.344 6.92969H117.582V4.77344H112.344V6.92969ZM118.672 13.7266H111.418V12.9531H118.672V13.7266ZM112.344 13.2227H111.418V10.7266H112.344V13.2227ZM128.352 4.97266H121.777V4.21094H128.352V4.97266ZM130.074 9.44922H120.582V8.6875H130.074V9.44922ZM125.773 13.9727H124.848V9.19141H125.773V13.9727ZM128.82 5.125C128.82 5.61719 128.814 6.04297 128.803 6.40234C128.791 6.76172 128.756 7.17578 128.697 7.64453C128.639 8.11328 128.547 8.62109 128.422 9.16797L127.508 9.05078C127.633 8.52734 127.725 8.03711 127.783 7.58008C127.842 7.12305 127.877 6.71875 127.889 6.36719C127.9 6.01562 127.906 5.60156 127.906 5.125V4.21094H128.82V5.125ZM143.457 9.8125H133.953V9.0625H143.457V9.8125ZM139.156 9.37891H138.242V7.69141H139.156V9.37891ZM142.332 8.03125H135.219V7.29297H142.332V8.03125ZM142.273 4.58594H136.145V7.67969H135.219V3.83594H142.273V4.58594ZM141.992 6.26172H135.863V5.55859H141.992V6.26172ZM138.711 10.5977C139.477 10.5898 140.125 10.6504 140.656 10.7793C141.188 10.9082 141.594 11.0977 141.875 11.3477C142.156 11.5977 142.297 11.9023 142.297 12.2617C142.297 12.6211 142.156 12.9238 141.875 13.1699C141.594 13.416 141.188 13.6035 140.656 13.7324C140.125 13.8613 139.477 13.9258 138.711 13.9258C137.945 13.9258 137.293 13.8613 136.754 13.7324C136.215 13.6035 135.807 13.416 135.529 13.1699C135.252 12.9238 135.113 12.6211 135.113 12.2617C135.113 11.8945 135.254 11.5879 135.535 11.3418C135.816 11.0957 136.225 10.9082 136.76 10.7793C137.295 10.6504 137.945 10.5898 138.711 10.5977ZM138.711 11.2891C138.141 11.2891 137.656 11.3262 137.258 11.4004C136.859 11.4746 136.557 11.584 136.35 11.7285C136.143 11.873 136.039 12.0508 136.039 12.2617C136.039 12.4727 136.141 12.6484 136.344 12.7891C136.547 12.9297 136.85 13.0352 137.252 13.1055C137.654 13.1758 138.141 13.2109 138.711 13.2109C139.281 13.2109 139.764 13.1758 140.158 13.1055C140.553 13.0352 140.854 12.9297 141.061 12.7891C141.268 12.6484 141.371 12.4727 141.371 12.2617C141.371 12.0508 141.268 11.873 141.061 11.7285C140.854 11.584 140.551 11.4746 140.152 11.4004C139.754 11.3262 139.273 11.2891 138.711 11.2891ZM147.289 3.91797C147.805 3.91797 148.268 4.01562 148.678 4.21094C149.088 4.40625 149.408 4.67969 149.639 5.03125C149.869 5.38281 149.984 5.78125 149.984 6.22656C149.984 6.67188 149.869 7.06836 149.639 7.41602C149.408 7.76367 149.088 8.03516 148.678 8.23047C148.268 8.42578 147.805 8.52344 147.289 8.52344C146.766 8.52344 146.299 8.42578 145.889 8.23047C145.479 8.03516 145.158 7.76367 144.928 7.41602C144.697 7.06836 144.582 6.67188 144.582 6.22656C144.582 5.78125 144.697 5.38281 144.928 5.03125C145.158 4.67969 145.479 4.40625 145.889 4.21094C146.299 4.01562 146.766 3.91797 147.289 3.91797ZM147.289 4.69141C146.945 4.69141 146.637 4.75586 146.363 4.88477C146.09 5.01367 145.875 5.19531 145.719 5.42969C145.562 5.66406 145.484 5.92969 145.484 6.22656C145.484 6.52344 145.562 6.78906 145.719 7.02344C145.875 7.25781 146.09 7.44141 146.363 7.57422C146.637 7.70703 146.945 7.77344 147.289 7.77344C147.633 7.77344 147.941 7.70703 148.215 7.57422C148.488 7.44141 148.703 7.25781 148.859 7.02344C149.016 6.78906 149.094 6.52344 149.094 6.22656C149.094 5.92969 149.016 5.66406 148.859 5.42969C148.703 5.19531 148.488 5.01367 148.215 4.88477C147.941 4.75586 147.633 4.69141 147.289 4.69141ZM152.938 8.88672H152.023V3.53125H152.938V8.88672ZM152.938 11.8984H147.09V13.4805H146.188V11.207H152.023V10.1289H146.164V9.39062H152.938V11.8984ZM153.312 13.8086H146.188V13.0703H153.312V13.8086ZM164.246 12.6602H154.707V11.8867H164.246V12.6602ZM159.898 12.2266H158.996V9.64844H159.898V12.2266ZM163.039 7.45703H156.816V9.56641H155.902V6.70703H162.137V5.06641H155.879V4.30469H163.039V7.45703ZM163.285 9.91797H155.902V9.15625H163.285V9.91797ZM171.395 13.1172C170.84 13.1172 170.342 13.0234 169.9 12.8359C169.459 12.6484 169.111 12.3848 168.857 12.0449C168.604 11.7051 168.465 11.3125 168.441 10.8672H169.508C169.531 11.125 169.627 11.3535 169.795 11.5527C169.963 11.752 170.186 11.9062 170.463 12.0156C170.74 12.125 171.047 12.1797 171.383 12.1797C171.75 12.1797 172.082 12.1152 172.379 11.9863C172.676 11.8574 172.906 11.6816 173.07 11.459C173.234 11.2363 173.316 10.9805 173.316 10.6914C173.316 10.3789 173.236 10.1035 173.076 9.86523C172.916 9.62695 172.682 9.44141 172.373 9.30859C172.064 9.17578 171.691 9.10938 171.254 9.10938H170.562V8.18359H171.254C171.598 8.18359 171.902 8.12305 172.168 8.00195C172.434 7.88086 172.639 7.71094 172.783 7.49219C172.928 7.27344 173 7.01953 173 6.73047C173 6.44922 172.936 6.20117 172.807 5.98633C172.678 5.77148 172.494 5.60547 172.256 5.48828C172.018 5.37109 171.738 5.3125 171.418 5.3125C171.113 5.3125 170.828 5.36719 170.562 5.47656C170.297 5.58594 170.08 5.74023 169.912 5.93945C169.744 6.13867 169.652 6.375 169.637 6.64844H168.617C168.641 6.21094 168.779 5.82031 169.033 5.47656C169.287 5.13281 169.625 4.86719 170.047 4.67969C170.469 4.49219 170.93 4.39844 171.43 4.39844C171.953 4.39844 172.412 4.5 172.807 4.70312C173.201 4.90625 173.504 5.18164 173.715 5.5293C173.926 5.87695 174.027 6.25781 174.02 6.67188C174.027 6.98438 173.973 7.27148 173.855 7.5332C173.738 7.79492 173.57 8.01562 173.352 8.19531C173.133 8.375 172.875 8.50781 172.578 8.59375V8.65234C172.945 8.70703 173.262 8.82812 173.527 9.01562C173.793 9.20312 173.998 9.43945 174.143 9.72461C174.287 10.0098 174.355 10.332 174.348 10.6914C174.355 11.1445 174.23 11.5566 173.973 11.9277C173.715 12.2988 173.359 12.5898 172.906 12.8008C172.453 13.0117 171.949 13.1172 171.395 13.1172ZM178.695 4.39844C179.242 4.39844 179.746 4.52344 180.207 4.77344C180.668 5.02344 181.045 5.44727 181.338 6.04492C181.631 6.64258 181.777 7.43359 181.777 8.41797C181.777 9.41016 181.648 10.2578 181.391 10.9609C181.133 11.6641 180.762 12.1992 180.277 12.5664C179.793 12.9336 179.219 13.1172 178.555 13.1172C178.07 13.1172 177.633 13.0215 177.242 12.8301C176.852 12.6387 176.531 12.373 176.281 12.0332C176.031 11.6934 175.871 11.3008 175.801 10.8555H176.844C176.906 11.1133 177.014 11.3418 177.166 11.541C177.318 11.7402 177.512 11.8965 177.746 12.0098C177.98 12.123 178.25 12.1797 178.555 12.1797C179.016 12.1797 179.414 12.0508 179.75 11.793C180.086 11.5352 180.344 11.1621 180.523 10.6738C180.703 10.1855 180.793 9.60156 180.793 8.92188H180.676C180.512 9.15625 180.318 9.35742 180.096 9.52539C179.873 9.69336 179.627 9.82227 179.357 9.91211C179.088 10.002 178.805 10.0469 178.508 10.0469C178.008 10.0469 177.545 9.92578 177.119 9.68359C176.693 9.44141 176.355 9.10742 176.105 8.68164C175.855 8.25586 175.73 7.77734 175.73 7.24609C175.73 6.71484 175.854 6.23242 176.1 5.79883C176.346 5.36523 176.693 5.02148 177.143 4.76758C177.592 4.51367 178.109 4.39062 178.695 4.39844ZM178.695 5.32422C178.336 5.32422 178.008 5.41016 177.711 5.58203C177.414 5.75391 177.182 5.98633 177.014 6.2793C176.846 6.57227 176.762 6.89062 176.762 7.23438C176.762 7.57812 176.844 7.89453 177.008 8.18359C177.172 8.47266 177.398 8.70117 177.688 8.86914C177.977 9.03711 178.301 9.12109 178.66 9.12109C179.02 9.12109 179.35 9.03125 179.65 8.85156C179.951 8.67188 180.189 8.43555 180.365 8.14258C180.541 7.84961 180.629 7.53906 180.629 7.21094C180.629 6.88281 180.545 6.57422 180.377 6.28516C180.209 5.99609 179.979 5.76367 179.686 5.58789C179.393 5.41211 179.062 5.32422 178.695 5.32422ZM187.156 5.51172V5.45312H182.668V4.51562H188.246V5.5L184.367 13H183.266L187.156 5.51172Z" fill="black"/>
</svg>
