<svg width="213" height="147" viewBox="0 0 213 147" fill="none" xmlns="http://www.w3.org/2000/svg">
<path d="M41.6367 136.637H38.4258V135.863H41.6367V136.637ZM41.6367 139.93H38.4258V139.168H41.6367V139.93ZM36.4922 134.34C37 134.34 37.4492 134.49 37.8398 134.791C38.2305 135.092 38.5371 135.516 38.7598 136.062C38.9824 136.609 39.0938 137.246 39.0938 137.973C39.0938 138.699 38.9824 139.336 38.7598 139.883C38.5371 140.43 38.2305 140.852 37.8398 141.148C37.4492 141.445 37 141.594 36.4922 141.594C35.9844 141.594 35.5332 141.445 35.1387 141.148C34.7441 140.852 34.4355 140.43 34.2129 139.883C33.9902 139.336 33.8789 138.699 33.8789 137.973C33.8789 137.246 33.9902 136.609 34.2129 136.062C34.4355 135.516 34.7441 135.092 35.1387 134.791C35.5332 134.49 35.9844 134.34 36.4922 134.34ZM36.4922 135.16C36.1562 135.16 35.8555 135.277 35.5898 135.512C35.3242 135.746 35.1191 136.074 34.9746 136.496C34.8301 136.918 34.7578 137.41 34.7578 137.973C34.7578 138.527 34.8301 139.018 34.9746 139.443C35.1191 139.869 35.3242 140.197 35.5898 140.428C35.8555 140.658 36.1562 140.773 36.4922 140.773C36.8281 140.773 37.1289 140.658 37.3945 140.428C37.6602 140.197 37.8652 139.869 38.0098 139.443C38.1543 139.018 38.2266 138.527 38.2266 137.973C38.2266 137.41 38.1543 136.918 38.0098 136.496C37.8652 136.074 37.6621 135.746 37.4004 135.512C37.1387 135.277 36.8359 135.16 36.4922 135.16ZM42.3281 143.973H41.4141V133.531H42.3281V143.973ZM47.4844 135.207C47.4844 135.871 47.3633 136.488 47.1211 137.059C46.8789 137.629 46.5371 138.125 46.0957 138.547C45.6543 138.969 45.1406 139.293 44.5547 139.52L44.0508 138.77C44.582 138.582 45.0508 138.311 45.457 137.955C45.8633 137.6 46.1777 137.186 46.4004 136.713C46.623 136.24 46.7344 135.738 46.7344 135.207V134.129H47.4844V135.207ZM47.6484 135.172C47.6484 135.656 47.7559 136.121 47.9707 136.566C48.1855 137.012 48.4883 137.4 48.8789 137.732C49.2695 138.064 49.7188 138.316 50.2266 138.488L49.7109 139.203C49.1484 138.992 48.6562 138.689 48.2344 138.295C47.8125 137.9 47.4824 137.436 47.2441 136.9C47.0059 136.365 46.8867 135.789 46.8867 135.172V134.129H47.6484V135.172ZM52.6992 139.707H51.7734V133.531H52.6992V139.707ZM49.2422 140.012C49.9688 140.012 50.5938 140.088 51.1172 140.24C51.6406 140.393 52.041 140.617 52.3184 140.914C52.5957 141.211 52.7344 141.566 52.7344 141.98C52.7344 142.387 52.5957 142.736 52.3184 143.029C52.041 143.322 51.6406 143.545 51.1172 143.697C50.5938 143.85 49.9688 143.926 49.2422 143.926C48.5234 143.926 47.9023 143.85 47.3789 143.697C46.8555 143.545 46.4531 143.322 46.1719 143.029C45.8906 142.736 45.75 142.387 45.75 141.98C45.75 141.566 45.8906 141.211 46.1719 140.914C46.4531 140.617 46.8555 140.393 47.3789 140.24C47.9023 140.088 48.5234 140.012 49.2422 140.012ZM49.2422 140.738C48.7188 140.738 48.2617 140.787 47.8711 140.885C47.4805 140.982 47.1816 141.125 46.9746 141.312C46.7676 141.5 46.6641 141.723 46.6641 141.98C46.6641 142.223 46.7676 142.436 46.9746 142.619C47.1816 142.803 47.4805 142.943 47.8711 143.041C48.2617 143.139 48.7188 143.188 49.2422 143.188C49.7734 143.188 50.2324 143.139 50.6191 143.041C51.0059 142.943 51.3027 142.803 51.5098 142.619C51.7168 142.436 51.8203 142.223 51.8203 141.98C51.8203 141.723 51.7168 141.5 51.5098 141.312C51.3027 141.125 51.0059 140.982 50.6191 140.885C50.2324 140.787 49.7734 140.738 49.2422 140.738ZM51.9727 136.531H49.4531V135.77H51.9727V136.531ZM63.9375 138.652H54.4336V137.914H63.9375V138.652ZM62.8008 137.059H55.6992V136.309H62.8008V137.059ZM62.6953 134.633H56.625V136.895H55.6992V133.895H62.6953V134.633ZM62.707 142.004H56.5195V143.34H55.6055V141.312H61.8047V140.305H55.582V139.59H62.707V142.004ZM63.0234 143.832H55.6055V143.082H63.0234V143.832ZM68.2148 134.293C68.7617 134.293 69.2461 134.396 69.668 134.604C70.0898 134.811 70.4199 135.1 70.6582 135.471C70.8965 135.842 71.0156 136.266 71.0156 136.742C71.0156 137.219 70.8965 137.643 70.6582 138.014C70.4199 138.385 70.0898 138.674 69.668 138.881C69.2461 139.088 68.7617 139.191 68.2148 139.191C67.6758 139.191 67.1914 139.088 66.7617 138.881C66.332 138.674 65.998 138.385 65.7598 138.014C65.5215 137.643 65.4023 137.219 65.4023 136.742C65.4023 136.266 65.5215 135.842 65.7598 135.471C65.998 135.1 66.332 134.811 66.7617 134.604C67.1914 134.396 67.6758 134.293 68.2148 134.293ZM68.2148 135.102C67.8477 135.102 67.5195 135.17 67.2305 135.307C66.9414 135.443 66.7148 135.637 66.5508 135.887C66.3867 136.137 66.3047 136.422 66.3047 136.742C66.3047 137.062 66.3867 137.346 66.5508 137.592C66.7148 137.838 66.9414 138.031 67.2305 138.172C67.5195 138.312 67.8477 138.383 68.2148 138.383C68.582 138.383 68.9102 138.312 69.1992 138.172C69.4883 138.031 69.7129 137.838 69.873 137.592C70.0332 137.346 70.1133 137.062 70.1133 136.742C70.1133 136.422 70.0332 136.137 69.873 135.887C69.7129 135.637 69.4883 135.443 69.1992 135.307C68.9102 135.17 68.582 135.102 68.2148 135.102ZM73.3477 143.973H72.4336V133.531H73.3477V143.973ZM64.8633 140.891C65.7305 140.891 66.5176 140.883 67.2246 140.867C67.9316 140.852 68.6836 140.818 69.4805 140.768C70.2773 140.717 71.0312 140.641 71.7422 140.539L71.8125 141.219C71.0781 141.352 70.3164 141.451 69.5273 141.518C68.7383 141.584 67.998 141.627 67.3066 141.646C66.6152 141.666 65.8438 141.676 64.9922 141.676L64.8633 140.891ZM85.9688 135.348H79.1953V134.586H85.9688V135.348ZM87.6797 142.473H78.1875V141.711H87.6797V142.473ZM82.8164 142.109H81.9141V137.984H82.8164V142.109ZM86.543 135.629C86.543 136.246 86.5352 136.76 86.5195 137.17C86.5039 137.58 86.4688 138.064 86.4141 138.623C86.3594 139.182 86.2734 139.785 86.1562 140.434L85.2188 140.328C85.3438 139.711 85.4355 139.129 85.4941 138.582C85.5527 138.035 85.5879 137.549 85.5996 137.123C85.6113 136.697 85.6172 136.199 85.6172 135.629V134.586H86.543V135.629ZM93.9961 139.273H89.1094V134.445H93.9961V139.273ZM90.0117 138.535H93.0938V135.207H90.0117V138.535ZM97.1602 141.031H96.2461V133.543H97.1602V141.031ZM97.4883 143.598H90.4336V142.836H97.4883V143.598ZM91.3477 143.152H90.4336V140.305H91.3477V143.152ZM103.676 133.719C104.449 133.719 105.111 133.787 105.662 133.924C106.213 134.061 106.633 134.264 106.922 134.533C107.211 134.803 107.355 135.129 107.355 135.512C107.355 135.902 107.211 136.232 106.922 136.502C106.633 136.771 106.213 136.977 105.662 137.117C105.111 137.258 104.449 137.332 103.676 137.34C102.902 137.332 102.24 137.258 101.689 137.117C101.139 136.977 100.717 136.771 100.424 136.502C100.131 136.232 99.9844 135.902 99.9844 135.512C99.9844 135.129 100.131 134.803 100.424 134.533C100.717 134.264 101.139 134.061 101.689 133.924C102.24 133.787 102.902 133.719 103.676 133.719ZM103.676 134.41C103.105 134.41 102.615 134.453 102.205 134.539C101.795 134.625 101.482 134.752 101.268 134.92C101.053 135.088 100.945 135.285 100.945 135.512C100.945 135.754 101.051 135.959 101.262 136.127C101.473 136.295 101.783 136.422 102.193 136.508C102.604 136.594 103.098 136.637 103.676 136.637C104.254 136.637 104.748 136.594 105.158 136.508C105.568 136.422 105.881 136.293 106.096 136.121C106.311 135.949 106.418 135.746 106.418 135.512C106.418 135.285 106.309 135.09 106.09 134.926C105.871 134.762 105.557 134.635 105.146 134.545C104.736 134.455 104.246 134.41 103.676 134.41ZM108.422 138.793H98.9297V138.043H108.422V138.793ZM107.203 142.027H101.016V143.293H100.102V141.348H106.301V140.398H100.078V139.695H107.203V142.027ZM107.52 143.832H100.102V143.105H107.52V143.832ZM115.781 140.258C115.781 140.812 115.693 141.332 115.518 141.816C115.342 142.297 115.074 142.719 114.715 143.082C114.355 143.449 113.904 143.729 113.361 143.92L112.629 142.836C113.082 142.676 113.457 142.463 113.754 142.197C114.055 141.928 114.277 141.627 114.422 141.295C114.566 140.963 114.639 140.617 114.639 140.258V139.895H115.781V140.258ZM116.092 140.258C116.092 140.617 116.156 140.967 116.285 141.307C116.414 141.646 116.617 141.957 116.895 142.238C117.172 142.516 117.521 142.742 117.943 142.918L117.352 144.02C116.805 143.816 116.357 143.521 116.01 143.135C115.666 142.748 115.416 142.311 115.26 141.822C115.107 141.33 115.031 140.809 115.031 140.258V139.895H116.092V140.258ZM119.643 140.258C119.643 140.773 119.562 141.279 119.402 141.775C119.246 142.271 118.996 142.717 118.652 143.111C118.309 143.506 117.875 143.809 117.352 144.02L116.736 142.918C117.15 142.727 117.496 142.486 117.773 142.197C118.051 141.904 118.254 141.59 118.383 141.254C118.516 140.918 118.582 140.586 118.582 140.258V139.895H119.643V140.258ZM120.053 140.258C120.053 140.641 120.123 141 120.264 141.336C120.404 141.672 120.625 141.971 120.926 142.232C121.227 142.49 121.604 142.691 122.057 142.836L121.336 143.92C120.785 143.736 120.33 143.465 119.971 143.105C119.611 142.75 119.346 142.33 119.174 141.846C119.002 141.357 118.916 140.828 118.916 140.258V139.895H120.053V140.258ZM121.131 139.449H119.637V133.426H121.131V139.449ZM115.289 133.959C115.84 133.959 116.336 134.068 116.777 134.287C117.223 134.506 117.572 134.811 117.826 135.201C118.08 135.592 118.207 136.035 118.207 136.531C118.207 137.016 118.08 137.453 117.826 137.844C117.572 138.23 117.223 138.533 116.777 138.752C116.336 138.967 115.84 139.074 115.289 139.074C114.738 139.074 114.24 138.967 113.795 138.752C113.354 138.533 113.006 138.23 112.752 137.844C112.498 137.453 112.371 137.016 112.371 136.531C112.371 136.031 112.498 135.588 112.752 135.201C113.006 134.811 113.354 134.506 113.795 134.287C114.24 134.068 114.738 133.959 115.289 133.959ZM115.289 135.219C115.004 135.215 114.75 135.266 114.527 135.371C114.309 135.477 114.137 135.629 114.012 135.828C113.891 136.023 113.83 136.258 113.83 136.531C113.83 136.789 113.891 137.018 114.012 137.217C114.137 137.412 114.309 137.564 114.527 137.674C114.75 137.779 115.004 137.834 115.289 137.838C115.57 137.834 115.818 137.779 116.033 137.674C116.248 137.564 116.416 137.412 116.537 137.217C116.662 137.018 116.725 136.789 116.725 136.531C116.725 136.258 116.664 136.023 116.543 135.828C116.422 135.629 116.252 135.477 116.033 135.371C115.818 135.266 115.57 135.215 115.289 135.219ZM131.244 137.492H123.785V136.326H131.244V137.492ZM132.322 139.807H122.572V138.635H132.322V139.807ZM125.279 136.912H123.785V133.789H125.279V136.912ZM131.309 143.844H123.691V142.637H131.309V143.844ZM125.191 142.982H123.691V140.68H125.191V142.982ZM143.555 135.6H136.734V134.393H143.555V135.6ZM145.459 142.672H135.732V141.459H145.459V142.672ZM144.258 135.67C144.258 136.338 144.25 136.896 144.234 137.346C144.223 137.791 144.189 138.305 144.135 138.887C144.084 139.469 143.998 140.105 143.877 140.797L142.359 140.674C142.488 140.033 142.582 139.428 142.641 138.857C142.699 138.287 142.734 137.773 142.746 137.316C142.758 136.855 142.764 136.307 142.764 135.67V134.393H144.258V135.67ZM155.314 144.078H153.908V133.402H155.314V144.078ZM154.248 138.729H152.438V137.533H154.248V138.729ZM152.877 143.562H151.506V133.596H152.877V143.562ZM147.146 140.416C147.924 140.416 148.594 140.398 149.156 140.363C149.719 140.328 150.293 140.258 150.879 140.152L150.984 141.365C150.387 141.479 149.799 141.557 149.221 141.6C148.643 141.639 147.951 141.66 147.146 141.664H146.396V140.416H147.146ZM150.381 135.852H147.896V141.02H146.396V134.65H150.381V135.852ZM166.225 142.895H156.475V141.67H166.225V142.895ZM162.064 142.18H160.594V139.648H162.064V142.18ZM165.1 137.639H159.088V139.461H157.6V136.467H163.623V135.307H157.582V134.105H165.1V137.639ZM165.352 140.053H157.6V138.84H165.352V140.053ZM168.076 145.473H166.834L167.414 142.139H169.09L168.076 145.473ZM181.354 138.359H173.877V137.223H181.354V138.359ZM181.271 134.873H175.389V137.779H173.877V133.725H181.271V134.873ZM181.014 136.59H174.943V135.482H181.014V136.59ZM182.408 140.164H172.682V138.969H182.408V140.164ZM178.283 141.424H176.783V139.766H178.283V141.424ZM181.248 144.078H179.777V142.104H173.754V140.926H181.248V144.078Z" fill="#A78BFA"/>
<path d="M29.4358 99.195C26.4458 99.195 23.9758 98.5775 22.0258 97.3425C20.1408 96.0425 18.6458 94.32 17.5408 92.175C16.5008 90.03 15.7858 87.5275 15.3958 84.6675C15.0058 81.8075 14.8108 78.8175 14.8108 75.6975C14.8108 73.3575 15.0058 71.115 15.3958 68.97C15.8508 66.825 16.3058 64.7775 16.7608 62.8275C17.2158 60.8775 17.5733 59.0575 17.8333 57.3675C18.0933 55.6775 18.0608 54.1175 17.7358 52.6875C17.5408 53.1425 16.9883 53.4025 16.0783 53.4675C15.1683 53.4675 14.5183 53.4675 14.1283 53.4675C12.5683 53.4675 11.0083 53.3375 9.44827 53.0775C7.95327 52.7525 6.58827 52.2325 5.35327 51.5175C4.18327 50.7375 3.24077 49.73 2.52577 48.495C1.81077 47.26 1.45327 45.7 1.45327 43.815C1.45327 41.54 1.90827 39.655 2.81827 38.16C3.79327 36.6 5.02827 35.3325 6.52327 34.3575C8.01827 33.3825 9.67577 32.6675 11.4958 32.2125C13.3158 31.7575 15.1033 31.4975 16.8583 31.4325C19.0033 31.3025 21.1483 31.2375 23.2933 31.2375C25.4383 31.2375 27.5833 31.2375 29.7283 31.2375C32.0033 31.2375 34.6033 31.3025 37.5283 31.4325C40.4533 31.4975 43.2483 31.92 45.9133 32.7C48.5783 33.48 50.8208 34.7475 52.6408 36.5025C54.4608 38.1925 55.3708 40.63 55.3708 43.815C55.3708 45.57 55.0783 47 54.4933 48.105C53.9083 49.145 53.0958 49.9575 52.0558 50.5425C51.0158 51.1275 49.8133 51.55 48.4483 51.81C47.0833 52.005 45.6208 52.1025 44.0608 52.1025C43.1508 52.1025 42.2408 52.07 41.3308 52.005C40.4208 51.94 39.5108 51.875 38.6008 51.81C38.7308 53.37 39.0233 54.995 39.4783 56.685C39.9983 58.375 40.5183 60.1625 41.0383 62.0475C41.5583 63.9325 42.0458 65.915 42.5008 67.995C42.9558 70.01 43.1833 72.09 43.1833 74.235C43.1833 76.965 43.0858 79.825 42.8908 82.815C42.7608 85.74 42.2408 88.4375 41.3308 90.9075C40.4858 93.3125 39.1208 95.295 37.2358 96.855C35.4158 98.415 32.8158 99.195 29.4358 99.195ZM167.926 100.95C165.651 100.95 163.474 100.04 161.394 98.22C159.314 96.335 157.461 93.8 155.836 90.615C154.276 87.43 153.009 83.7575 152.034 79.5975C151.124 75.4375 150.669 71.0825 150.669 66.5325C150.669 61.9175 151.091 57.465 151.936 53.175C152.846 48.885 154.049 45.0825 155.544 41.7675C157.104 38.4525 158.891 35.82 160.906 33.87C162.986 31.855 165.196 30.8475 167.536 30.8475C169.876 30.8475 171.859 31.3025 173.484 32.2125C175.109 33.1225 176.409 34.26 177.384 35.625C178.359 36.925 179.074 38.355 179.529 39.915C179.984 41.41 180.211 42.775 180.211 44.01C180.211 44.985 180.146 46.1225 180.016 47.4225C179.886 48.7225 179.756 49.9575 179.626 51.1275C179.496 52.2975 179.431 53.2725 179.431 54.0525C179.431 54.8325 179.529 55.2225 179.724 55.2225C179.919 55.2225 180.114 54.8 180.309 53.955C180.569 53.11 180.861 52.0375 181.186 50.7375C181.576 49.4375 181.966 47.975 182.356 46.35C182.811 44.66 183.331 43.0025 183.916 41.3775C184.371 40.0775 184.989 38.81 185.769 37.575C186.614 36.34 187.621 35.2675 188.791 34.3575C190.026 33.3825 191.456 32.6025 193.081 32.0175C194.706 31.4325 196.559 31.14 198.639 31.14C200.069 31.14 201.434 31.4 202.734 31.92C204.099 32.44 205.269 33.1875 206.244 34.1625C207.284 35.0725 208.096 36.21 208.681 37.575C209.266 38.875 209.559 40.37 209.559 42.06C209.559 43.1 209.494 44.1725 209.364 45.2775C209.234 46.3175 208.974 47.4225 208.584 48.5925C208.194 49.7625 207.641 50.9975 206.926 52.2975C206.211 53.5325 205.269 54.865 204.099 56.295C203.059 57.53 201.889 58.635 200.589 59.61C199.354 60.52 198.151 61.365 196.981 62.145C195.876 62.86 194.934 63.5425 194.154 64.1925C193.439 64.7775 193.081 65.3625 193.081 65.9475C193.081 66.1425 193.309 66.5 193.764 67.02C194.219 67.54 194.999 68.1575 196.104 68.8725C197.729 69.9775 199.484 71.115 201.369 72.285C203.254 73.455 205.009 74.755 206.634 76.185C208.324 77.55 209.721 79.11 210.826 80.865C211.931 82.62 212.484 84.6675 212.484 87.0075C212.484 89.3475 212.061 91.2975 211.216 92.8575C210.371 94.4175 209.331 95.6525 208.096 96.5625C206.926 97.4725 205.659 98.1225 204.294 98.5125C202.929 98.8375 201.726 99 200.686 99C197.891 99 195.519 98.5775 193.569 97.7325C191.619 96.8225 189.961 95.685 188.596 94.32C187.231 92.89 186.094 91.2975 185.184 89.5425C184.274 87.7225 183.429 85.935 182.649 84.18C182.324 83.335 181.999 82.49 181.674 81.645C181.349 80.8 181.056 80.0525 180.796 79.4025C180.536 78.6875 180.309 78.1025 180.114 77.6475C179.984 77.1925 179.854 76.965 179.724 76.965C179.594 76.965 179.561 77.5175 179.626 78.6225C179.691 79.7275 179.724 81.2225 179.724 83.1075C179.724 85.1225 179.529 87.2025 179.139 89.3475C178.749 91.4925 178.066 93.41 177.091 95.1C176.181 96.79 174.979 98.1875 173.484 99.2925C171.989 100.398 170.136 100.95 167.926 100.95Z" fill="#A78BFA"/>
<path d="M154.5 67.0298C154.5 86.4978 140.397 102.28 123 102.28C105.603 102.28 91.5 86.4978 91.5 67.0298C91.5 47.5617 105.603 31.7798 123 31.7798C140.397 31.7798 154.5 47.5617 154.5 67.0298Z" fill="#A78BFA"/>
<path d="M108 67.0298C108 86.4978 93.897 102.28 76.5 102.28C59.103 102.28 45 86.4978 45 67.0298C45 47.5617 59.103 31.7798 76.5 31.7798C93.897 31.7798 108 47.5617 108 67.0298Z" fill="#A78BFA"/>
<path d="M93.75 76.7798C93.75 85.4783 89.049 92.5298 83.25 92.5298C77.451 92.5298 72.75 85.4783 72.75 76.7798C72.75 68.0813 77.451 61.0298 83.25 61.0298C89.049 61.0298 93.75 68.0813 93.75 76.7798Z" fill="white"/>
<path d="M141.75 76.7798C141.75 85.4783 137.049 92.5298 131.25 92.5298C125.451 92.5298 120.75 85.4783 120.75 76.7798C120.75 68.0813 125.451 61.0298 131.25 61.0298C137.049 61.0298 141.75 68.0813 141.75 76.7798Z" fill="white"/>
<path d="M63 23.5297C63 23.5297 68.5108 20.2001 75.75 19.7798C82.9892 19.3594 89.25 23.5298 89.25 23.5298" stroke="#A78BFA" stroke-width="3.75" stroke-linecap="round"/>
<path d="M118.097 99.2798C118.097 99.2798 112.016 105.378 104.897 106.722C97.7766 108.065 91.1501 106.012 91.1501 106.012" stroke="#A78BFA" stroke-width="3.75" stroke-linecap="round"/>
</svg>
