<svg width="110" height="93" viewBox="0 0 110 93" fill="none" xmlns="http://www.w3.org/2000/svg">
<path d="M109.5 50.0298C109.5 69.4978 95.397 85.2798 78 85.2798C60.603 85.2798 46.5 69.4978 46.5 50.0298C46.5 30.5617 60.603 14.7798 78 14.7798C95.397 14.7798 109.5 30.5617 109.5 50.0298Z" fill="#A78BFA"/>
<path d="M63 50.0298C63 69.4978 48.897 85.2798 31.5 85.2798C14.103 85.2798 0 69.4978 0 50.0298C0 30.5617 14.103 14.7798 31.5 14.7798C48.897 14.7798 63 30.5617 63 50.0298Z" fill="#A78BFA"/>
<path d="M48.75 59.7798C48.75 68.4783 44.049 75.5298 38.25 75.5298C32.451 75.5298 27.75 68.4783 27.75 59.7798C27.75 51.0813 32.451 44.0298 38.25 44.0298C44.049 44.0298 48.75 51.0813 48.75 59.7798Z" fill="white"/>
<path d="M96.75 59.7798C96.75 68.4783 92.049 75.5298 86.25 75.5298C80.451 75.5298 75.75 68.4783 75.75 59.7798C75.75 51.0813 80.451 44.0298 86.25 44.0298C92.049 44.0298 96.75 51.0813 96.75 59.7798Z" fill="white"/>
<path d="M18 6.52972C18 6.52972 23.5108 3.2001 30.75 2.77977C37.9892 2.35943 44.25 6.52975 44.25 6.52975" stroke="#A78BFA" stroke-width="3.75" stroke-linecap="round"/>
<path d="M73.0966 82.2796C73.0966 82.2796 67.0165 88.3784 59.8965 89.7215C52.7766 91.0647 46.1501 89.0124 46.1501 89.0124" stroke="#A78BFA" stroke-width="3.75" stroke-linecap="round"/>
</svg>
