<svg width="34" height="34" viewBox="0 0 34 34" fill="none" xmlns="http://www.w3.org/2000/svg">
<path d="M28.6875 6.375H5.31254C4.74895 6.375 4.20845 6.59888 3.80994 6.9974C3.41142 7.39591 3.18754 7.93641 3.18754 8.5V29.75C3.18509 30.1552 3.29972 30.5525 3.51766 30.8942C3.73559 31.2358 4.04756 31.5072 4.41605 31.6758C4.69686 31.8065 5.00279 31.8745 5.31254 31.875C5.81137 31.8737 6.29363 31.6958 6.67387 31.373L6.68582 31.3637L11.0235 27.625H28.6875C29.2511 27.625 29.7916 27.4011 30.1901 27.0026C30.5887 26.6041 30.8125 26.0636 30.8125 25.5V8.5C30.8125 7.93641 30.5887 7.39591 30.1901 6.9974C29.7916 6.59888 29.2511 6.375 28.6875 6.375ZM21.25 20.1875H12.75C12.4682 20.1875 12.198 20.0756 11.9987 19.8763C11.7995 19.677 11.6875 19.4068 11.6875 19.125C11.6875 18.8432 11.7995 18.573 11.9987 18.3737C12.198 18.1744 12.4682 18.0625 12.75 18.0625H21.25C21.5318 18.0625 21.8021 18.1744 22.0013 18.3737C22.2006 18.573 22.3125 18.8432 22.3125 19.125C22.3125 19.4068 22.2006 19.677 22.0013 19.8763C21.8021 20.0756 21.5318 20.1875 21.25 20.1875ZM21.25 15.9375H12.75C12.4682 15.9375 12.198 15.8256 11.9987 15.6263C11.7995 15.427 11.6875 15.1568 11.6875 14.875C11.6875 14.5932 11.7995 14.323 11.9987 14.1237C12.198 13.9244 12.4682 13.8125 12.75 13.8125H21.25C21.5318 13.8125 21.8021 13.9244 22.0013 14.1237C22.2006 14.323 22.3125 14.5932 22.3125 14.875C22.3125 15.1568 22.2006 15.427 22.0013 15.6263C21.8021 15.8256 21.5318 15.9375 21.25 15.9375Z" fill="#DDD6F3"/>
</svg>
