<svg width="30" height="30" viewBox="0 0 30 30" fill="none" xmlns="http://www.w3.org/2000/svg">
<path d="M14.9152 11.225L12.8477 13.08C13.121 14.0155 13.5028 14.9157 13.9852 15.7625C14.4884 16.6031 15.0948 17.3774 15.7902 18.0675L18.4677 17.2425C19.9677 16.78 21.6052 17.255 22.6027 18.4425L24.1277 20.2575C24.7451 20.9861 25.0547 21.9265 24.9907 22.8794C24.9268 23.8323 24.4944 24.7229 23.7852 25.3625C21.2977 27.6325 17.4677 28.4 14.6002 26.1475C12.0789 24.1644 9.94629 21.7317 8.31019 18.9725C6.66993 16.2269 5.57175 13.192 5.07519 10.0325C4.52519 6.47752 7.12769 3.63252 10.3727 2.66252C12.3077 2.08252 14.3727 3.07752 15.0827 4.93252L15.9202 7.12002C16.4702 8.56002 16.0752 10.185 14.9152 11.225Z" fill="#5E548E"/>
</svg>
