<svg width="30" height="30" viewBox="0 0 30 30" fill="none" xmlns="http://www.w3.org/2000/svg">
<path d="M12.3772 2C10.7531 2.00087 9.15176 2.38267 7.702 3.11473C6.25224 3.84679 4.99448 4.90867 4.02981 6.21505C3.06513 7.52142 2.42045 9.03583 2.14758 10.6366C1.87471 12.2373 1.98126 13.8797 2.45867 15.4318C2.93608 16.9839 3.77102 18.4024 4.8964 19.5732C6.02178 20.7441 7.40621 21.6346 8.9384 22.1733C10.4706 22.712 12.1078 22.8838 13.7185 22.6749C15.3292 22.466 16.8684 21.8822 18.2124 20.9705L24.6289 27.3805C24.8072 27.5717 25.0221 27.7251 25.2609 27.8315C25.4997 27.9379 25.7575 27.9951 26.0189 27.9997C26.2803 28.0043 26.5399 27.9562 26.7823 27.8583C27.0247 27.7604 27.2449 27.6147 27.4298 27.4299C27.6147 27.2451 27.7604 27.0249 27.8583 26.7826C27.9562 26.5402 28.0043 26.2806 27.9997 26.0193C27.9951 25.758 27.9379 25.5002 27.8315 25.2615C27.7251 25.0227 27.5716 24.8079 27.3804 24.6297L20.969 18.2145C22.0297 16.6537 22.6448 14.8334 22.7482 12.9493C22.8516 11.0652 22.4394 9.18849 21.5558 7.52107C20.6723 5.85365 19.3509 4.45855 17.7337 3.48576C16.1164 2.51298 14.2646 1.99932 12.3772 2ZM5.888 12.3806C5.888 10.6599 6.57169 9.00968 7.78866 7.79297C9.00563 6.57626 10.6562 5.89272 12.3772 5.89272C14.0983 5.89272 15.7489 6.57626 16.9658 7.79297C18.1828 9.00968 18.8665 10.6599 18.8665 12.3806C18.8665 14.1013 18.1828 15.7515 16.9658 16.9682C15.7489 18.1849 14.0983 18.8684 12.3772 18.8684C10.6562 18.8684 9.00563 18.1849 7.78866 16.9682C6.57169 15.7515 5.888 14.1013 5.888 12.3806Z" fill="#5E548E"/>
</svg>
