<svg width="27" height="27" viewBox="0 0 27 27" fill="none" xmlns="http://www.w3.org/2000/svg">
<path d="M12.8574 2.99512C12.9653 2.66374 13.434 2.66386 13.542 2.99512L15.377 8.64258C15.5858 9.28533 16.1855 9.7207 16.8613 9.7207H22.7998C23.1482 9.72107 23.2928 10.1672 23.0107 10.3721L18.207 13.8623C17.6604 14.2595 17.4311 14.9638 17.6396 15.6064L19.4756 21.2549C19.5828 21.5863 19.2029 21.8621 18.9209 21.6572L14.1172 18.167C13.5704 17.7697 12.83 17.7697 12.2832 18.167L7.47852 21.6572C7.19653 21.8616 6.81752 21.5862 6.9248 21.2549L8.75977 15.6064C8.96845 14.9638 8.74004 14.2595 8.19336 13.8623L3.38867 10.3721C3.10696 10.167 3.252 9.72074 3.60059 9.7207H9.53906C10.2148 9.72065 10.8136 9.28529 11.0225 8.64258L12.8574 2.99512Z" stroke="#A78BFA" stroke-opacity="0.5" stroke-width="1.2"/>
</svg>
