<svg width="11" height="11" viewBox="0 0 11 11" fill="none" xmlns="http://www.w3.org/2000/svg">
<path d="M5.35742 1.24805C5.40235 1.10992 5.59765 1.10991 5.64258 1.24805L6.40723 3.60156C6.49432 3.86922 6.74391 4.05076 7.02539 4.05078H9.5C9.64503 4.05101 9.70509 4.23586 9.58789 4.32129L7.58594 5.77637C7.35832 5.94191 7.26265 6.23523 7.34961 6.50293L8.11426 8.85645C8.15887 8.99452 8.00127 9.10879 7.88379 9.02344L5.88184 7.56934C5.65409 7.40398 5.34591 7.40398 5.11816 7.56934L3.11621 9.02344C2.99873 9.10879 2.84113 8.99452 2.88574 8.85645L3.65039 6.50293C3.73735 6.23523 3.64168 5.94191 3.41406 5.77637L1.41211 4.32129C1.29491 4.23586 1.35497 4.05101 1.5 4.05078H3.97461C4.25609 4.05076 4.50568 3.86922 4.59277 3.60156L5.35742 1.24805Z" stroke="#A78BFA" stroke-opacity="0.5" stroke-width="0.5"/>
</svg>
