<svg width="213" height="138" viewBox="0 0 213 138" fill="none" xmlns="http://www.w3.org/2000/svg">
<path d="M29.4359 95.1949C26.4459 95.1949 23.9759 94.5774 22.0259 93.3424C20.1409 92.0424 18.6459 90.3199 17.5409 88.1749C16.5009 86.0299 15.7859 83.5274 15.3959 80.6674C15.0059 77.8074 14.8109 74.8174 14.8109 71.6974C14.8109 69.3574 15.0059 67.1149 15.3959 64.9699C15.8509 62.8249 16.3059 60.7774 16.7609 58.8274C17.2159 56.8774 17.5734 55.0574 17.8334 53.3674C18.0934 51.6774 18.0609 50.1174 17.7359 48.6874C17.5409 49.1424 16.9884 49.4024 16.0784 49.4674C15.1684 49.4674 14.5184 49.4674 14.1284 49.4674C12.5684 49.4674 11.0084 49.3374 9.44837 49.0774C7.95337 48.7524 6.58837 48.2324 5.35337 47.5174C4.18337 46.7374 3.24087 45.7299 2.52587 44.4949C1.81087 43.2599 1.45337 41.6999 1.45337 39.8149C1.45337 37.5399 1.90837 35.6549 2.81837 34.1599C3.79337 32.5999 5.02837 31.3324 6.52337 30.3574C8.01837 29.3824 9.67587 28.6674 11.4959 28.2124C13.3159 27.7574 15.1034 27.4974 16.8584 27.4324C19.0034 27.3024 21.1484 27.2374 23.2934 27.2374C25.4384 27.2374 27.5834 27.2374 29.7284 27.2374C32.0034 27.2374 34.6034 27.3024 37.5284 27.4324C40.4534 27.4974 43.2484 27.9199 45.9134 28.6999C48.5784 29.4799 50.8209 30.7474 52.6409 32.5024C54.4609 34.1924 55.3709 36.6299 55.3709 39.8149C55.3709 41.5699 55.0784 42.9999 54.4934 44.1049C53.9084 45.1449 53.0959 45.9574 52.0559 46.5424C51.0159 47.1274 49.8134 47.5499 48.4484 47.8099C47.0834 48.0049 45.6209 48.1024 44.0609 48.1024C43.1509 48.1024 42.2409 48.0699 41.3309 48.0049C40.4209 47.9399 39.5109 47.8749 38.6009 47.8099C38.7309 49.3699 39.0234 50.9949 39.4784 52.6849C39.9984 54.3749 40.5184 56.1624 41.0384 58.0474C41.5584 59.9324 42.0459 61.9149 42.5009 63.9949C42.9559 66.0099 43.1834 68.0899 43.1834 70.2349C43.1834 72.9649 43.0859 75.8249 42.8909 78.8149C42.7609 81.7399 42.2409 84.4374 41.3309 86.9074C40.4859 89.3124 39.1209 91.2949 37.2359 92.8549C35.4159 94.4149 32.8159 95.1949 29.4359 95.1949ZM167.926 96.9499C165.651 96.9499 163.474 96.0399 161.394 94.2199C159.314 92.3349 157.461 89.7999 155.836 86.6149C154.276 83.4299 153.009 79.7574 152.034 75.5974C151.124 71.4374 150.669 67.0824 150.669 62.5324C150.669 57.9174 151.091 53.4649 151.936 49.1749C152.846 44.8849 154.049 41.0824 155.544 37.7674C157.104 34.4524 158.891 31.8199 160.906 29.8699C162.986 27.8549 165.196 26.8474 167.536 26.8474C169.876 26.8474 171.859 27.3024 173.484 28.2124C175.109 29.1224 176.409 30.2599 177.384 31.6249C178.359 32.9249 179.074 34.3549 179.529 35.9149C179.984 37.4099 180.211 38.7749 180.211 40.0099C180.211 40.9849 180.146 42.1224 180.016 43.4224C179.886 44.7224 179.756 45.9574 179.626 47.1274C179.496 48.2974 179.431 49.2724 179.431 50.0524C179.431 50.8324 179.529 51.2224 179.724 51.2224C179.919 51.2224 180.114 50.7999 180.309 49.9549C180.569 49.1099 180.861 48.0374 181.186 46.7374C181.576 45.4374 181.966 43.9749 182.356 42.3499C182.811 40.6599 183.331 39.0024 183.916 37.3774C184.371 36.0774 184.989 34.8099 185.769 33.5749C186.614 32.3399 187.621 31.2674 188.791 30.3574C190.026 29.3824 191.456 28.6024 193.081 28.0174C194.706 27.4324 196.559 27.1399 198.639 27.1399C200.069 27.1399 201.434 27.3999 202.734 27.9199C204.099 28.4399 205.269 29.1874 206.244 30.1624C207.284 31.0724 208.096 32.2099 208.681 33.5749C209.266 34.8749 209.559 36.3699 209.559 38.0599C209.559 39.0999 209.494 40.1724 209.364 41.2774C209.234 42.3174 208.974 43.4224 208.584 44.5924C208.194 45.7624 207.641 46.9974 206.926 48.2974C206.211 49.5324 205.269 50.8649 204.099 52.2949C203.059 53.5299 201.889 54.6349 200.589 55.6099C199.354 56.5199 198.151 57.3649 196.981 58.1449C195.876 58.8599 194.934 59.5424 194.154 60.1924C193.439 60.7774 193.081 61.3624 193.081 61.9474C193.081 62.1424 193.309 62.4999 193.764 63.0199C194.219 63.5399 194.999 64.1574 196.104 64.8724C197.729 65.9774 199.484 67.1149 201.369 68.2849C203.254 69.4549 205.009 70.7549 206.634 72.1849C208.324 73.5499 209.721 75.1099 210.826 76.8649C211.931 78.6199 212.484 80.6674 212.484 83.0074C212.484 85.3474 212.061 87.2974 211.216 88.8574C210.371 90.4174 209.331 91.6524 208.096 92.5624C206.926 93.4724 205.659 94.1224 204.294 94.5124C202.929 94.8374 201.726 94.9999 200.686 94.9999C197.891 94.9999 195.519 94.5774 193.569 93.7324C191.619 92.8224 189.961 91.6849 188.596 90.3199C187.231 88.8899 186.094 87.2974 185.184 85.5424C184.274 83.7224 183.429 81.9349 182.649 80.1799C182.324 79.3349 181.999 78.4899 181.674 77.6449C181.349 76.7999 181.056 76.0524 180.796 75.4024C180.536 74.6874 180.309 74.1024 180.114 73.6474C179.984 73.1924 179.854 72.9649 179.724 72.9649C179.594 72.9649 179.561 73.5174 179.626 74.6224C179.691 75.7274 179.724 77.2224 179.724 79.1074C179.724 81.1224 179.529 83.2024 179.139 85.3474C178.749 87.4924 178.066 89.4099 177.091 91.0999C176.181 92.7899 174.979 94.1874 173.484 95.2924C171.989 96.3974 170.136 96.9499 167.926 96.9499Z" fill="#A78BFA"/>
<path d="M154.5 63.0298C154.5 82.4978 140.397 98.2798 123 98.2798C105.603 98.2798 91.5 82.4978 91.5 63.0298C91.5 43.5617 105.603 27.7798 123 27.7798C140.397 27.7798 154.5 43.5617 154.5 63.0298Z" fill="#A78BFA"/>
<path d="M108 63.0298C108 82.4978 93.897 98.2798 76.5 98.2798C59.103 98.2798 45 82.4978 45 63.0298C45 43.5617 59.103 27.7798 76.5 27.7798C93.897 27.7798 108 43.5617 108 63.0298Z" fill="#A78BFA"/>
<path d="M93.75 72.7798C93.75 81.4783 89.049 88.5298 83.25 88.5298C77.451 88.5298 72.75 81.4783 72.75 72.7798C72.75 64.0813 77.451 57.0298 83.25 57.0298C89.049 57.0298 93.75 64.0813 93.75 72.7798Z" fill="white"/>
<path d="M141.75 72.7798C141.75 81.4783 137.049 88.5298 131.25 88.5298C125.451 88.5298 120.75 81.4783 120.75 72.7798C120.75 64.0813 125.451 57.0298 131.25 57.0298C137.049 57.0298 141.75 64.0813 141.75 72.7798Z" fill="white"/>
<path d="M63 19.5297C63 19.5297 68.5108 16.2001 75.75 15.7798C82.9892 15.3594 89.25 19.5298 89.25 19.5298" stroke="#A78BFA" stroke-width="3.75" stroke-linecap="round"/>
<path d="M118.097 95.2795C118.097 95.2795 112.016 101.378 104.897 102.722C97.7766 104.065 91.1501 102.012 91.1501 102.012" stroke="#A78BFA" stroke-width="3.75" stroke-linecap="round"/>
</svg>
