<svg width="20" height="20" viewBox="0 0 20 20" fill="none" xmlns="http://www.w3.org/2000/svg">
<path d="M6.875 10C6.875 10.7917 6.91042 11.5592 6.97625 12.2917H13.0237C13.0896 11.5592 13.125 10.7917 13.125 10C13.125 9.20833 13.0896 8.44083 13.0233 7.70833H6.97708C6.91042 8.44083 6.875 9.20833 6.875 10ZM5.72208 7.70833C5.65687 8.47048 5.62448 9.23507 5.625 10C5.625 10.7858 5.65833 11.5529 5.72167 12.2917H0.907083C0.722917 11.5583 0.625 10.7904 0.625 10C0.625 9.20958 0.722917 8.44167 0.907083 7.70833H5.72208ZM7.12458 6.45833H12.875C12.69 5.19708 12.41 4.0725 12.0629 3.14875C11.7383 2.285 11.3675 1.62875 10.9879 1.20042C10.6075 0.770417 10.2717 0.625 10 0.625C9.72833 0.625 9.3925 0.770833 9.01167 1.2C8.63208 1.62917 8.26125 2.285 7.93667 3.14875C7.58958 4.0725 7.30958 5.19708 7.12417 6.45833M14.2779 7.70833C14.3417 8.44708 14.375 9.21417 14.375 10C14.375 10.7858 14.3417 11.5529 14.2783 12.2917H19.0929C19.2771 11.5583 19.375 10.7904 19.375 10C19.375 9.20958 19.2771 8.44167 19.0929 7.70833H14.2779ZM18.6833 6.45833H14.1379C13.9421 5.04667 13.6321 3.77083 13.2333 2.70917C12.9788 2.03167 12.6821 1.425 12.3442 0.920417C15.2275 1.66292 17.5733 3.7425 18.6825 6.45833M5.86167 6.45833H1.31708C2.42583 3.7425 4.77208 1.66292 7.65542 0.920833C7.31792 1.425 7.02083 2.03167 6.76625 2.70917C6.3675 3.77083 6.05792 5.04667 5.86208 6.45833M5.86083 13.5417H1.31708C2.42542 16.2562 4.76958 18.335 7.65042 19.0783C7.31292 18.5742 7.01708 17.9675 6.76292 17.2908C6.365 16.2283 6.05583 14.9533 5.86083 13.5417ZM12.0667 16.8517C12.4125 15.9279 12.6917 14.8033 12.8767 13.5417H7.12333C7.30792 14.8033 7.58708 15.9279 7.93333 16.8517C8.2575 17.7154 8.62792 18.3713 9.00833 18.7996C9.38833 19.2288 9.725 19.375 10 19.375C10.275 19.375 10.6117 19.2288 10.9917 18.7996C11.3721 18.3713 11.7425 17.7154 12.0667 16.8517ZM13.2371 17.2904C13.635 16.2288 13.9442 14.9529 14.1392 13.5417H18.6829C17.5746 16.2562 15.2304 18.335 12.3496 19.0783C12.6871 18.5742 12.9829 17.9671 13.2371 17.2904Z" fill="#5E548E"/>
</svg>
