<svg width="80" height="80" viewBox="0 0 80 80" fill="none" xmlns="http://www.w3.org/2000/svg">
<rect width="80" height="80" rx="40" fill="#5E548E"/>
<path fill-rule="evenodd" clip-rule="evenodd" d="M51.8579 27.1083C51.0375 26.2881 49.9249 25.8274 48.7648 25.8274C47.6047 25.8274 46.4921 26.2881 45.6717 27.1083L44.6406 28.1408L51.8594 35.3596L52.889 34.3285C53.2953 33.9223 53.6176 33.4399 53.8375 32.9091C54.0575 32.3783 54.1706 31.8093 54.1706 31.2347C54.1706 30.6601 54.0575 30.0911 53.8375 29.5603C53.6176 29.0294 53.2953 28.5471 52.889 28.1408L51.8579 27.1083ZM49.7958 37.4217L42.5771 30.2029L29.3208 43.4606C29.0308 43.7508 28.8281 44.1166 28.7361 44.5165L27.2354 51.0133C27.1795 51.2545 27.1859 51.506 27.2541 51.744C27.3222 51.982 27.4498 52.1988 27.6249 52.3739C27.8 52.5489 28.0167 52.6766 28.2548 52.7447C28.4928 52.8128 28.7442 52.8192 28.9854 52.7633L35.4838 51.2642C35.8831 51.1719 36.2484 50.9692 36.5381 50.6794L49.7958 37.4217Z" fill="white"/>
</svg>
